<svg width="40" height="42" viewBox="0 0 40 42" fill="none" xmlns="http://www.w3.org/2000/svg">
<path d="M37.6599 22.4611L39.9872 9.59363C40.0071 9.48295 40.0038 9.36932 39.9773 9.26003C39.9508 9.15073 39.9017 9.04817 39.8333 8.95891C39.759 8.87397 39.6673 8.80598 39.5644 8.75952C39.4616 8.71307 39.3499 8.68924 39.2371 8.68964H7.55891L6.52028 2.90025C6.4255 2.36701 6.14622 1.88408 5.73131 1.53597C5.31639 1.18787 4.79228 0.996763 4.25068 0.996094H0.769354C0.565309 0.996094 0.369621 1.07715 0.225339 1.22143C0.0810567 1.36571 0 1.5614 0 1.76545C0 1.96949 0.0810567 2.16518 0.225339 2.30946C0.369621 2.45375 0.565309 2.5348 0.769354 2.5348H4.25068C4.43011 2.53652 4.60329 2.6009 4.74027 2.71681C4.87725 2.83271 4.96941 2.99285 5.0008 3.16952L10.3671 32.655C9.61265 33.2038 9.04224 33.9683 8.73098 34.8478C8.41972 35.7272 8.38223 36.6803 8.62344 37.5815C8.86465 38.4826 9.37325 39.2896 10.0822 39.896C10.7912 40.5023 11.6672 40.8796 12.5949 40.9782C13.5225 41.0768 14.4583 40.8919 15.2789 40.4481C16.0994 40.0042 16.7662 39.3222 17.1914 38.4918C17.6166 37.6615 17.7802 36.7217 17.6607 35.7965C17.5412 34.8713 17.1441 34.004 16.5219 33.309H29.6394C28.9348 34.0967 28.5219 35.1023 28.4696 36.1579C28.4173 37.2134 28.7287 38.255 29.3519 39.1085C29.9752 39.962 30.8724 40.5759 31.8937 40.8475C32.9151 41.1191 33.9987 41.032 34.9636 40.6008C35.9284 40.1695 36.7161 39.4203 37.195 38.4782C37.6739 37.5361 37.8151 36.4582 37.5948 35.4245C37.3746 34.3909 36.8064 33.4641 35.9851 32.799C35.1637 32.1339 34.1391 31.7708 33.0822 31.7703H11.7711L10.6363 25.6154H33.8708C34.7718 25.6166 35.6447 25.3015 36.3371 24.7251C37.0296 24.1486 37.4977 23.3474 37.6599 22.4611ZM16.1564 36.3864C16.1564 36.9951 15.976 37.59 15.6378 38.0961C15.2997 38.6022 14.819 38.9966 14.2567 39.2296C13.6944 39.4625 13.0756 39.5234 12.4786 39.4047C11.8817 39.2859 11.3333 38.9928 10.903 38.5625C10.4726 38.1321 10.1795 37.5837 10.0607 36.9868C9.94199 36.3898 10.0029 35.771 10.2359 35.2087C10.4688 34.6464 10.8632 34.1658 11.3693 33.8276C11.8754 33.4895 12.4704 33.309 13.079 33.309C13.8952 33.309 14.678 33.6332 15.2551 34.2103C15.8322 34.7875 16.1564 35.5702 16.1564 36.3864ZM36.1597 36.3864C36.1597 36.9951 35.9792 37.59 35.641 38.0961C35.3029 38.6022 34.8222 38.9966 34.2599 39.2296C33.6976 39.4625 33.0788 39.5234 32.4819 39.4047C31.8849 39.2859 31.3366 38.9928 30.9062 38.5625C30.4758 38.1321 30.1827 37.5837 30.064 36.9868C29.9452 36.3898 30.0062 35.771 30.2391 35.2087C30.472 34.6464 30.8664 34.1658 31.3725 33.8276C31.8786 33.4895 32.4736 33.309 33.0822 33.309C33.8984 33.309 34.6812 33.6332 35.2583 34.2103C35.8354 34.7875 36.1597 35.5702 36.1597 36.3864ZM7.84741 10.2283H38.3138L36.1404 22.1726C36.0492 22.7075 35.771 23.1926 35.3553 23.5414C34.9395 23.8902 34.4135 24.0799 33.8708 24.0767H10.3671L7.84741 10.2283Z" fill="#9B9B9B"/>
</svg>
