<svg width="48" height="48" viewBox="0 0 48 48" fill="none" xmlns="http://www.w3.org/2000/svg">
<circle cx="9.6" cy="38.3998" r="9.1" stroke="#9B9B9B"/>
<circle cx="38.4" cy="38.3998" r="9.1" stroke="#9B9B9B"/>
<circle cx="24" cy="9.6" r="9.1" stroke="#9B9B9B"/>
<line x1="19.6389" y1="17.0392" x2="12.4389" y2="30.2392" stroke="#9B9B9B"/>
<line x1="29.2552" y1="16.5929" x2="35.2552" y2="29.7929" stroke="#9B9B9B"/>
<line x1="19.2" y1="37.8999" x2="30" y2="37.8999" stroke="#9B9B9B"/>
<path d="M27.5613 12.3842C27.6859 12.0834 27.75 11.761 27.75 11.4354C27.75 11.1098 27.6859 10.7874 27.5613 10.4866C27.4367 10.1857 27.2541 9.91242 27.0238 9.68218C26.7936 9.45195 26.5203 9.26932 26.2194 9.14471C25.9186 9.02011 25.5962 8.95598 25.2706 8.95598H22.9412C22.4755 8.95598 22.0289 8.77099 21.6996 8.44169C21.3703 8.1124 21.1853 7.66579 21.1853 7.2001C21.1853 6.73441 21.3703 6.28779 21.6996 5.9585C22.0289 5.62921 22.4755 5.44422 22.9412 5.44422H24.8471C25.3128 5.44422 25.7594 5.62921 26.0887 5.9585C26.418 6.28779 26.603 6.73441 26.603 7.2001C26.603 7.29604 26.6411 7.38806 26.7089 7.4559C26.7768 7.52375 26.8688 7.56186 26.9647 7.56186C27.0607 7.56186 27.1527 7.52375 27.2205 7.4559C27.2884 7.38806 27.3265 7.29604 27.3265 7.2001C27.3265 6.54252 27.0653 5.91187 26.6003 5.44689C26.1353 4.98191 25.5047 4.72069 24.8471 4.72069H24.3618V3.81186C24.3618 3.71592 24.3237 3.6239 24.2558 3.55606C24.188 3.48821 24.096 3.4501 24 3.4501C23.9041 3.4501 23.8121 3.48821 23.7442 3.55606C23.6764 3.6239 23.6383 3.71592 23.6383 3.81186V4.72069H22.9412C22.2836 4.72069 21.653 4.98191 21.188 5.44689C20.723 5.91187 20.4618 6.54252 20.4618 7.2001C20.4618 7.85768 20.723 8.48833 21.188 8.95331C21.653 9.41829 22.2836 9.67951 22.9412 9.67951H25.2706C25.7363 9.67951 26.1829 9.8645 26.5122 10.1938C26.8415 10.5231 27.0265 10.9697 27.0265 11.4354C27.0265 11.9011 26.8415 12.3477 26.5122 12.677C26.1829 13.0063 25.7363 13.1913 25.2706 13.1913H22.7294C22.2637 13.1913 21.8171 13.0063 21.4878 12.677C21.1585 12.3477 20.9736 11.9011 20.9736 11.4354C20.9736 11.3394 20.9354 11.2474 20.8676 11.1796C20.7998 11.1117 20.7077 11.0736 20.6118 11.0736C20.5158 11.0736 20.4238 11.1117 20.356 11.1796C20.2881 11.2474 20.25 11.3394 20.25 11.4354C20.25 12.093 20.5112 12.7236 20.9762 13.1886C21.4412 13.6536 22.0719 13.9148 22.7294 13.9148H23.6383V14.8236C23.6383 14.9196 23.6764 15.0116 23.7442 15.0794C23.8121 15.1473 23.9041 15.1854 24 15.1854C24.096 15.1854 24.188 15.1473 24.2558 15.0794C24.3237 15.0116 24.3618 14.9196 24.3618 14.8236V13.9148H25.2706C25.5962 13.9148 25.9186 13.8507 26.2194 13.7261C26.5203 13.6015 26.7936 13.4188 27.0238 13.1886C27.2541 12.9584 27.4367 12.685 27.5613 12.3842Z" fill="#9B9B9B" stroke="#9B9B9B" stroke-width="0.3"/>
<path d="M43.5912 40.7779C43.5283 40.7992 43.463 40.813 43.397 40.819L43.397 40.8191L43.391 40.8194L39.1826 41.0345L39.3619 41.5765C39.4205 41.7536 39.4012 41.9463 39.3115 42.1118C39.2221 42.2769 39.07 42.4017 38.8899 42.4613L37.4316 42.9436C37.2515 43.0032 37.0549 42.9936 36.8847 42.9144C36.714 42.8351 36.5836 42.6919 36.525 42.5148L36.0887 41.1957L34.6414 41.2688L34.6402 41.2688C34.4867 41.2754 34.3351 41.235 34.2081 41.1519C34.0809 41.0686 33.9853 40.9468 33.9368 40.8037L33.9365 40.8027L33.426 39.2594L33.4257 39.2583C33.3793 39.1146 33.3834 38.9598 33.4359 38.8171C33.4883 38.6745 33.5859 38.5518 33.713 38.4655L33.7141 38.4648L41.006 33.6084L41.006 33.6084L41.0069 33.6078C41.0998 33.5469 41.2054 33.5069 41.3154 33.4907C41.4255 33.4746 41.5376 33.4827 41.6432 33.5151C41.7488 33.5474 41.8452 33.6031 41.9244 33.6787C42.0035 33.7543 42.063 33.8474 42.0977 33.9508L42.0977 33.9508L42.0978 33.9513L44.0631 39.8931L44.0633 39.8937C44.097 39.9971 44.1047 40.107 44.0863 40.2146C44.068 40.3221 44.0241 40.4241 43.959 40.5129C43.8681 40.6371 43.7387 40.7298 43.5912 40.7779ZM43.5912 40.7779C43.5915 40.7778 43.5919 40.7777 43.5922 40.7776L43.544 40.6355L43.5903 40.7782C43.5906 40.7781 43.5909 40.778 43.5912 40.7779ZM43.4066 40.1349L43.4065 40.1348L43.4091 40.1314C43.4126 40.1267 43.4143 40.1223 43.4149 40.1187C43.4155 40.1152 43.4152 40.1122 43.4143 40.1099L43.4143 40.1099L43.4137 40.1079L41.4484 34.1661L41.4484 34.1661L41.4478 34.1641C41.447 34.1617 41.4456 34.1592 41.443 34.1567C41.4404 34.1542 41.4364 34.1516 41.4307 34.15L41.4307 34.1502L41.4222 34.1472C41.4182 34.1458 41.412 34.1454 41.4053 34.1479L41.4054 34.1481L41.3989 34.1502L41.368 34.1604L37.7147 36.5963L38.9672 40.3832L43.3695 40.1552C43.3768 40.1545 43.3842 40.1523 43.3907 40.1487C43.3976 40.1449 43.4029 40.14 43.4066 40.1349ZM34.6218 40.6044L38.2579 40.417L37.1252 36.9922L34.0944 39.0099L34.0938 39.0103C34.0848 39.0162 34.0794 39.0237 34.0769 39.0304C34.0745 39.0366 34.0747 39.0419 34.0758 39.0459L34.5854 40.5866C34.5869 40.5905 34.5899 40.5948 34.5955 40.5984C34.6015 40.6022 34.6103 40.605 34.621 40.6044L34.6218 40.6044ZM37.1744 42.3C37.176 42.3048 37.1801 42.3106 37.1888 42.3147C37.1978 42.3189 37.2106 42.3202 37.2239 42.3158L38.6822 41.8335C38.6955 41.8291 38.705 41.8204 38.7097 41.8116C38.7143 41.8032 38.7141 41.7961 38.7125 41.7913L38.4747 41.0724L36.7967 41.1579L37.1744 42.3Z" fill="#9B9B9B" stroke="#9B9B9B" stroke-width="0.3"/>
<path d="M14.2898 36.32L14.2897 36.3198C14.1914 36.2084 14.0705 36.1191 13.9352 36.0577C13.7998 35.9964 13.653 35.9644 13.5044 35.9638H13.5039H11.0549V35.2161C11.0549 34.7477 10.8688 34.2985 10.5376 33.9673C10.2064 33.6362 9.75725 33.4501 9.28888 33.4501V33.4501L9.28553 33.4501C9.22582 33.4515 9.16753 33.4686 9.11657 33.4997C9.0656 33.5309 9.02379 33.5749 8.99536 33.6275L8.99529 33.6274L8.99312 33.6318L7.28842 37.0412H5.33871C5.15606 37.0412 4.9809 37.1137 4.85175 37.2429C4.7226 37.372 4.65005 37.5472 4.65005 37.7298V41.68C4.65005 41.8626 4.7226 42.0378 4.85175 42.167C4.9809 42.2961 5.15606 42.3687 5.33871 42.3687L12.9652 42.3687L12.9656 42.3687C13.2204 42.3681 13.4663 42.2747 13.6572 42.106C13.8481 41.9372 13.971 41.7047 14.0028 41.4519L14.0029 41.4517L14.5414 37.1431C14.5415 37.1429 14.5415 37.1428 14.5415 37.1427C14.5604 36.9956 14.5478 36.8462 14.5045 36.7043C14.4611 36.5624 14.3879 36.4314 14.2898 36.32ZM5.30916 41.68V37.7298C5.30916 37.722 5.31227 37.7145 5.31781 37.7089L5.21748 37.6086L5.31781 37.7089C5.32335 37.7034 5.33087 37.7003 5.33871 37.7003H7.1638V41.7096H5.33871C5.33087 41.7096 5.32335 41.7064 5.31781 41.7009L5.21221 41.8065L5.31781 41.7009C5.31227 41.6954 5.30916 41.6878 5.30916 41.68ZM13.8891 37.0616L13.3507 41.3684C13.3507 41.3686 13.3507 41.3688 13.3506 41.369C13.338 41.4626 13.292 41.5487 13.2211 41.6112C13.1502 41.6738 13.0591 41.7087 12.9645 41.7096H7.8229V37.4465L9.48289 34.1266C9.72056 34.1697 9.93873 34.2894 10.1033 34.4687C10.2905 34.6727 10.3948 34.9393 10.3958 35.2163V36.2934C10.3958 36.3808 10.4305 36.4646 10.4923 36.5264C10.5541 36.5882 10.6379 36.623 10.7253 36.623H13.5034C13.5586 36.6234 13.6131 36.6354 13.6634 36.6583C13.7136 36.6812 13.7584 36.7144 13.795 36.7557C13.8309 36.7973 13.8578 36.8459 13.8741 36.8985C13.8903 36.951 13.8954 37.0064 13.8891 37.061C13.8891 37.0612 13.8891 37.0614 13.8891 37.0616Z" fill="#9B9B9B" stroke="#9B9B9B" stroke-width="0.3"/>
</svg>
