<svg width="48" height="36" viewBox="0 0 48 36" fill="none" xmlns="http://www.w3.org/2000/svg">
<path d="M37.5 0.4375C36.0166 0.4375 34.5666 0.877367 33.3332 1.70148C32.0999 2.52559 31.1386 3.69693 30.5709 5.06737C30.0032 6.43782 29.8547 7.94582 30.1441 9.40067C30.4335 10.8555 31.1478 12.1919 32.1967 13.2408C33.2456 14.2897 34.582 15.004 36.0368 15.2934C37.4917 15.5828 38.9997 15.4342 40.3701 14.8666C41.7406 14.2989 42.9119 13.3376 43.736 12.1043C44.5601 10.8709 45 9.42086 45 7.9375C44.996 5.94959 44.2046 4.04424 42.7989 2.63858C41.3933 1.23291 39.4879 0.441464 37.5 0.4375ZM37.5 14.8375C36.1353 14.8375 34.8013 14.4328 33.6666 13.6746C32.5319 12.9165 31.6475 11.8388 31.1252 10.578C30.603 9.3172 30.4663 7.92984 30.7326 6.59137C30.9988 5.25291 31.656 4.02344 32.621 3.05846C33.5859 2.09348 34.8154 1.43632 36.1539 1.17008C37.4923 0.903843 38.8797 1.04049 40.1405 1.56273C41.4013 2.08498 42.479 2.96937 43.2371 4.10406C43.9953 5.23876 44.4 6.57281 44.4 7.9375C44.398 9.76688 43.6704 11.5208 42.3768 12.8143C41.0833 14.1079 39.3294 14.8355 37.5 14.8375ZM40.2 9.4375C40.198 9.91428 40.0078 10.371 39.6706 10.7081C39.3335 11.0452 38.8768 11.2355 38.4 11.2375H37.8V12.1375C37.8 12.2171 37.7684 12.2934 37.7121 12.3496C37.6559 12.4059 37.5796 12.4375 37.5 12.4375C37.4204 12.4375 37.3441 12.4059 37.2879 12.3496C37.2316 12.2934 37.2 12.2171 37.2 12.1375V11.2375H35.7C35.6204 11.2375 35.5441 11.2059 35.4879 11.1496C35.4316 11.0934 35.4 11.0171 35.4 10.9375C35.4 10.8579 35.4316 10.7816 35.4879 10.7254C35.5441 10.6691 35.6204 10.6375 35.7 10.6375H38.4C38.7183 10.6375 39.0235 10.5111 39.2485 10.286C39.4736 10.061 39.6 9.75576 39.6 9.4375C39.6 9.11924 39.4736 8.81401 39.2485 8.58897C39.0235 8.36393 38.7183 8.2375 38.4 8.2375H36.6C36.1226 8.2375 35.6648 8.04786 35.3272 7.71029C34.9896 7.37273 34.8 6.91489 34.8 6.4375C34.8 5.96011 34.9896 5.50227 35.3272 5.16471C35.6648 4.82714 36.1226 4.6375 36.6 4.6375H37.2V3.7375C37.2 3.65793 37.2316 3.58163 37.2879 3.52537C37.3441 3.46911 37.4204 3.4375 37.5 3.4375C37.5796 3.4375 37.6559 3.46911 37.7121 3.52537C37.7684 3.58163 37.8 3.65793 37.8 3.7375V4.6375H39.3C39.3796 4.6375 39.4559 4.66911 39.5121 4.72537C39.5684 4.78163 39.6 4.85793 39.6 4.9375C39.6 5.01706 39.5684 5.09337 39.5121 5.14963C39.4559 5.20589 39.3796 5.2375 39.3 5.2375H36.6C36.2817 5.2375 35.9765 5.36393 35.7515 5.58897C35.5264 5.81401 35.4 6.11924 35.4 6.4375C35.4 6.75576 35.5264 7.06098 35.7515 7.28603C35.9765 7.51107 36.2817 7.6375 36.6 7.6375H38.4C38.8768 7.63947 39.3335 7.82975 39.6706 8.16689C40.0078 8.50403 40.198 8.96072 40.2 9.4375Z" fill="#9B9B9B" stroke="#9B9B9B" stroke-width="0.7"/>
<path d="M46.3328 24.4845L45.1994 25.3773H45.2093L35.7912 32.8061C33.9267 34.273 31.6766 35.0627 29.3753 35.0627H2.6667C1.49928 35.0627 0.5 34.0436 0.5 32.7085V27.0001C0.5 25.665 1.49928 24.6459 2.6667 24.6459H5.7334H5.91852L6.05901 24.5253L9.79968 21.3153C9.79985 21.3151 9.80002 21.315 9.80019 21.3148C11.6042 19.7754 13.8399 18.9375 16.1418 18.9375H29.3337C30.5011 18.9375 31.5004 19.9566 31.5004 21.2917C31.5004 22.6268 30.5011 23.6459 29.3337 23.6459H22.6669C21.626 23.6459 20.8336 24.5445 20.8336 25.573C20.8336 26.6015 21.626 27.5001 22.6669 27.5001H32.717H32.8905L33.0266 27.3927L43.0015 19.526C44.2498 18.5427 46.0046 18.8164 46.9385 20.1747C47.8858 21.5523 47.6023 23.4845 46.3328 24.4845Z" stroke="#9B9B9B"/>
</svg>
