<svg width="117" height="43" viewBox="0 0 117 43" fill="none" xmlns="http://www.w3.org/2000/svg">
<g clip-path="url(#clip0_2316_23)">
<path d="M29.7046 13.0645C29.5472 14.1941 30.0192 15.3237 30.8058 16.312C31.435 17.018 32.5362 17.4416 33.4801 17.4416C34.1094 17.4416 34.7387 17.3004 35.3679 17.018C35.9972 16.7356 36.4692 16.1708 36.7838 15.6061C37.0984 14.9001 37.4131 14.0529 37.2557 13.3469C37.4131 12.0762 36.9411 10.9466 36.1545 9.95822C35.5253 9.11104 34.424 8.68746 33.3228 8.68746C32.2216 8.68746 31.2777 9.11104 30.6484 9.81702C30.0192 10.6642 29.5472 11.935 29.7046 13.0645ZM41.1886 8.68746V18.9948C41.1886 19.9831 41.0313 21.1127 40.7167 22.1011C40.4021 22.9483 39.9301 23.6542 39.3008 24.219C38.6716 24.7838 37.7277 25.2074 36.9411 25.4898C35.8399 25.631 34.5814 25.7722 33.3228 25.7722C32.0643 25.7722 30.8058 25.631 29.7046 25.2074C28.7607 24.925 27.9741 24.5014 27.1875 23.9366C26.7155 23.513 26.4009 22.9483 26.2436 22.2423C26.2436 21.8187 26.4009 21.3951 26.7155 21.2539C27.0302 20.9715 27.5021 20.8303 27.9741 20.8303C28.6033 20.8303 29.0753 21.1127 29.5472 21.5363L30.1765 22.2423C30.3338 22.5247 30.6484 22.6659 30.9631 22.9483C31.2777 23.0894 31.5923 23.2306 31.907 23.3718C32.3789 23.513 32.8509 23.513 33.1655 23.513C33.9521 23.513 34.7387 23.3718 35.5253 23.0894C35.9972 22.8071 36.4692 22.5247 36.7838 21.9599C36.9411 21.5363 37.0984 20.9715 37.2557 20.5479C37.2557 19.9831 37.2557 19.136 37.4131 18.0064C36.7838 18.7124 36.1545 19.2772 35.2106 19.7007C34.2667 20.1243 33.3228 20.2655 32.3789 20.2655C31.1204 20.2655 30.0192 19.9831 28.918 19.2772C27.9741 18.5712 27.1875 17.724 26.7155 16.7356C26.0863 15.6061 25.929 14.1941 25.929 12.9233C25.929 11.935 26.0863 10.9466 26.4009 10.0994C26.7155 9.25224 27.1875 8.54626 27.8168 7.98148C28.446 7.41669 29.0753 6.9931 29.8619 6.71071C30.4911 6.14593 31.2777 6.00473 32.2216 6.00473C33.1655 6.00473 34.2667 6.14593 35.2106 6.56952C36.1545 6.9931 36.9411 7.69908 37.5704 8.40506V7.98148C37.5704 7.41669 37.7277 6.9931 38.0423 6.56952C38.1996 6.14593 38.6716 6.00473 39.3008 6.00473C39.9301 5.86354 40.5594 6.14593 40.874 6.71071C41.0313 7.2755 41.1886 7.84028 41.1886 8.68746Z" fill="white"/>
<path d="M62.426 13.2058C62.5833 11.9351 62.1113 10.8055 61.3247 9.81711C60.6955 8.96994 59.5943 8.54635 58.4931 8.54635C57.7065 8.54635 57.0772 8.68755 56.4479 9.11113C55.8187 9.53472 55.3467 10.0995 55.0321 10.6643C54.4028 12.2174 54.4028 13.9118 55.0321 15.6062C55.3467 16.3121 55.8187 16.8769 56.4479 17.1593C57.0772 17.5829 57.7065 17.7241 58.4931 17.7241C59.5943 17.7241 60.6955 17.3005 61.3247 16.4533C62.1113 15.6061 62.5833 14.4766 62.426 13.2058ZM66.3589 13.2058C66.3589 14.1942 66.2016 15.1826 65.7296 16.1709C65.415 17.0181 64.7857 17.8653 64.1564 18.4301C63.5272 19.1361 62.5833 19.5596 61.6394 19.842C60.5382 20.2656 59.437 20.4068 58.3357 20.4068C57.2345 20.4068 56.1333 20.2656 55.0321 19.842C53.1443 19.1361 51.5711 17.7241 50.9419 16.0297C50.1553 14.1942 50.1553 12.0763 50.9419 10.0995C51.2565 9.25233 51.8858 8.40515 52.515 7.84037C53.1443 7.13439 54.0882 6.7108 55.0321 6.42841C57.0772 5.72243 59.437 5.72243 61.4821 6.42841C62.426 6.7108 63.2125 7.27559 63.9991 7.98157C64.6284 8.68755 65.2577 9.39353 65.5723 10.2407C66.2016 11.2291 66.3589 12.2174 66.3589 13.2058Z" fill="white"/>
<path d="M79.8876 13.2061C79.8876 14.0533 80.0449 14.9004 80.3595 15.6064C80.6742 16.1712 81.1461 16.736 81.7754 17.1596C82.4046 17.442 83.0339 17.7244 83.6632 17.7244C84.2924 17.7244 84.9217 17.5832 85.551 17.3008C86.1802 16.8772 86.6522 16.4536 86.9668 15.7476C87.2815 14.9004 87.4388 14.0533 87.4388 13.2061C87.4388 12.3589 87.2815 11.5117 86.9668 10.8058C86.6522 10.241 86.1802 9.67619 85.551 9.25261C84.9217 8.82902 84.2924 8.68782 83.6632 8.68782C83.0339 8.68782 82.2473 8.82902 81.7754 9.25261C80.9888 9.67619 80.5169 10.241 80.2022 10.8058C79.8876 11.6529 79.7303 12.3589 79.8876 13.2061ZM87.7534 18.4303V18.148C87.2815 18.5715 86.8095 19.1363 86.1802 19.4187C85.7083 19.7011 85.079 19.9835 84.4498 20.2659C83.8205 20.4071 83.1912 20.5483 82.4047 20.5483C81.4608 20.5483 80.5169 20.4071 79.7303 19.9835C78.9437 19.5599 78.1571 19.1363 77.6852 18.4303C77.0559 17.7244 76.5839 16.8772 76.2693 16.03C75.9547 15.0416 75.7974 14.0533 75.7974 13.0649C75.7974 10.8058 76.4266 9.11141 77.6852 7.84064C78.9437 6.71108 80.6742 6.0051 82.4047 6.0051C83.3485 6.0051 84.2924 6.14629 85.2363 6.56988C86.1802 6.99347 86.8095 7.55825 87.5961 8.12304V2.89878C87.5961 2.334 87.7534 1.76922 88.068 1.20443C88.3827 0.780844 88.8546 0.639648 89.4839 0.639648C89.9558 0.639648 90.5851 0.780844 90.8997 1.20443C91.2144 1.62802 91.3717 2.1928 91.3717 2.75759V18.4303C91.3717 18.9951 91.2144 19.5599 90.8997 19.9835C90.5851 20.2659 90.1132 20.5483 89.4839 20.5483C89.0119 20.5483 88.54 20.4071 88.068 19.9835C87.7534 19.5599 87.5961 18.9951 87.7534 18.4303Z" fill="white"/>
<path d="M111.822 13.3471C111.035 13.6295 110.091 13.7707 109.305 13.9119C108.204 14.0531 107.417 14.3354 106.945 14.3354C106.473 14.4766 106.001 14.6178 105.686 14.9002C105.372 15.1826 105.057 15.6062 105.057 16.171C105.057 16.7358 105.372 17.1594 105.844 17.583C106.316 18.0065 106.945 18.1477 107.574 18.1477C108.361 18.1477 108.99 18.0065 109.777 17.7242C110.406 17.4418 110.878 17.0182 111.193 16.5946C111.664 15.7474 111.822 14.9002 111.664 13.9119L111.822 13.3471ZM111.979 18.4301C111.193 18.9949 110.249 19.5597 109.147 19.9833C108.204 20.2657 107.102 20.5481 106.158 20.5481C105.215 20.5481 104.271 20.4069 103.484 19.9833C102.697 19.7009 102.068 19.1361 101.754 18.5713C101.282 18.0065 101.124 17.3006 101.124 16.5946C101.124 15.7474 101.439 14.759 102.225 14.0531C103.012 13.3471 103.956 12.7823 105.057 12.6411L106.945 12.3587C107.889 12.2175 108.833 12.0763 109.462 11.7939C110.249 11.6527 110.878 11.5115 111.822 11.2291C111.822 10.5232 111.664 9.81717 111.193 9.11119C110.878 8.68761 110.091 8.40521 108.833 8.40521C108.046 8.40521 107.26 8.54641 106.63 8.8288C106.158 9.1112 105.686 9.53478 105.372 9.95837C105.215 10.2408 104.9 10.6644 104.585 10.9467C104.271 11.0879 103.956 11.2291 103.641 11.2291C103.169 11.2291 102.855 11.0879 102.54 10.8055C102.225 10.5232 102.068 10.2408 102.068 9.81717C102.068 9.11119 102.383 8.54641 102.855 7.98163C103.484 7.27565 104.271 6.85206 105.214 6.56967C106.158 6.14608 107.417 6.00488 108.833 6.00488C110.249 6.00488 111.664 6.14608 112.923 6.56967C113.867 6.85206 114.653 7.55804 115.125 8.26402C115.597 9.25239 115.755 10.382 115.755 11.5115V15.6062C115.755 16.3122 115.912 17.0182 116.069 17.7242C116.227 18.1477 116.384 18.7125 116.384 19.1361C116.384 19.5597 116.227 19.8421 115.755 20.1245C115.44 20.4069 114.968 20.5481 114.496 20.5481C114.024 20.5481 113.552 20.4069 113.238 19.9833C112.766 19.5597 112.451 18.9949 111.979 18.4301Z" fill="white"/>
<path d="M11.4542 13.3471C10.6676 13.6295 9.72375 13.7707 8.93716 13.9119C7.83595 14.1943 7.04937 14.3354 6.57742 14.3354C6.10547 14.4766 5.63352 14.6178 5.31889 14.9002C5.00426 15.1826 4.68962 15.6062 4.68962 16.171C4.68962 16.7358 5.00426 17.1594 5.4762 17.583C5.94815 18.0065 6.57742 18.1477 7.20668 18.1477C7.99327 18.1477 8.62253 18.0065 9.40911 17.7242C10.0384 17.4418 10.5103 17.0182 10.825 16.5946C11.2969 15.7474 11.4542 14.9002 11.2969 13.9119L11.4542 13.3471ZM11.6115 18.4301C10.825 18.9949 9.88106 19.5597 8.77985 19.9833C7.83595 20.2657 6.73474 20.5481 5.79084 20.5481C4.84694 20.5481 3.90304 20.4069 3.11646 19.9833C2.32988 19.7009 1.70061 19.1361 1.38598 18.5713C0.91403 18.0065 0.756714 17.3006 0.756714 16.5946C0.756714 15.7474 1.07135 14.759 1.85793 14.0531C2.64451 13.3471 3.58841 12.7823 4.68962 12.6411L6.57742 12.3587C7.52132 12.2175 8.46522 12.0763 9.09448 11.7939C9.72375 11.6527 10.5103 11.3703 11.2969 11.2291C11.2969 10.5232 11.1396 9.81717 10.6676 9.11119C10.353 8.68761 9.56643 8.54641 8.46522 8.54641C7.67863 8.54641 6.89205 8.68761 6.26279 8.97C5.63352 9.11119 5.16157 9.53478 4.84694 9.95837C4.53231 10.5232 4.21767 10.8055 4.06036 10.9467C3.74572 11.2291 3.43109 11.2291 3.11646 11.2291C2.64451 11.2291 2.32988 11.0879 2.01524 10.8055C1.70061 10.6644 1.5433 10.2408 1.5433 9.81717C1.5433 9.11119 1.85793 8.54641 2.32988 7.98163C2.95914 7.27565 3.74572 6.85206 4.68962 6.56967C5.79084 6.14608 7.04937 6.00488 8.46522 6.00488C9.88106 6.00488 11.2969 6.14608 12.5554 6.56967C13.4993 6.85206 14.2859 7.41684 14.7579 8.26402C15.2298 9.25239 15.3871 10.382 15.3871 11.5115V15.6062C15.3871 16.3122 15.5445 17.0182 15.7018 17.7242C15.8591 18.1477 16.0164 18.7125 16.0164 19.1361C16.0164 19.5597 15.7018 19.8421 15.3871 20.1245C15.0725 20.4069 14.6006 20.5481 14.1286 20.5481C13.6567 20.5481 13.1847 20.4069 12.8701 19.9833C12.5554 19.5597 12.0835 18.9949 11.6115 18.4301Z" fill="white"/>
<path d="M8.3079 28.8784C12.5554 28.8784 15.8591 31.9847 15.8591 35.6558C15.8591 39.4681 12.3981 42.4332 8.3079 42.4332C4.06036 42.4332 0.756714 39.3269 0.756714 35.6558C0.756714 31.8435 4.21767 28.8784 8.3079 28.8784Z" fill="white"/>
<path d="M33.4801 28.8784C37.7277 28.8784 41.0313 31.9847 41.0313 35.6558C41.0313 39.4681 37.5704 42.4332 33.4801 42.4332C29.2326 42.4332 25.929 39.3269 25.929 35.6558C25.929 31.8435 29.2326 28.8784 33.4801 28.8784Z" fill="white"/>
<path d="M58.4928 28.8784C62.7404 28.8784 66.044 31.9847 66.044 35.6558C66.044 39.4681 62.5831 42.4332 58.4928 42.4332C54.2453 42.4332 50.9417 39.3269 50.9417 35.6558C50.9417 31.8435 54.4026 28.8784 58.4928 28.8784Z" fill="white"/>
<path d="M83.6628 28.8784C87.9103 28.8784 91.2139 31.9847 91.2139 35.6558C91.2139 39.4681 87.753 42.4332 83.6628 42.4332C79.4152 42.4332 76.1116 39.3269 76.1116 35.6558C76.1116 31.8435 79.4152 28.8784 83.6628 28.8784Z" fill="white"/>
<path d="M108.833 28.8784C113.081 28.8784 116.384 31.9847 116.384 35.6558C116.384 39.4681 112.923 42.4332 108.833 42.4332C104.586 42.4332 101.282 39.3269 101.282 35.6558C101.125 31.8435 104.586 28.8784 108.833 28.8784Z" fill="white"/>
</g>
<defs>
<clipPath id="clip0_2316_23">
<rect width="116.571" height="42.5" fill="white" transform="translate(0.285522 0.356934)"/>
</clipPath>
</defs>
</svg>
