<svg width="134" height="98" viewBox="0 0 134 98" fill="none" xmlns="http://www.w3.org/2000/svg">
<path d="M33.5477 89.5721V69.9683H45.7022V72.4273H36.0649V78.4533H44.7186V80.9101H36.0649V87.0533H46.3774V89.5102H33.5477V89.5721ZM59.1443 89.5721L54.9683 84.3643L50.797 89.5721H47.8506L53.5578 82.6085L47.5443 75.4127H50.8619L54.9683 80.7951L59.1443 75.4127H62.397L56.6898 82.6085L62.0907 89.5721H59.1443ZM66.1415 87.4647V97.1195H63.6243V82.6682C63.6243 78.9818 66.5707 75.0611 71.1759 75.0611C75.8391 75.0611 79.34 77.8695 79.34 82.4913C79.34 86.9981 75.7788 90.0984 71.7281 90.0984C69.763 90.0984 67.1252 89.278 66.1415 87.4647ZM76.6998 82.4913C76.6998 79.3334 74.5515 77.4604 70.7467 77.6351C68.9046 77.6948 66.0812 78.9818 66.3271 83.4864C66.3874 84.9503 67.9836 87.6991 71.4821 87.6991C74.4912 87.6991 76.6998 86.0626 76.6998 82.4913ZM81.486 89.5721V75.4127H84.0055V76.9341C85.2328 75.5874 87.1352 75.1208 89.1606 75.1208V77.6948C88.8543 77.6351 85.8453 77.2857 84.0055 81.0296V89.6318H81.486V89.5721ZM89.838 82.4913C89.838 78.3958 92.905 75.0611 97.1414 75.0611C102.419 75.0611 104.384 78.3958 104.384 82.6682V83.838H92.5988C92.7844 86.5292 95.2993 87.9335 97.6332 87.876C99.35 87.8163 100.517 87.3474 101.744 86.1776L103.401 87.8163C101.867 89.2205 99.9022 90.1559 97.5079 90.1559C93.028 90.0984 89.838 86.9383 89.838 82.4913ZM96.9558 77.4604C94.5615 77.4604 92.7218 79.4506 92.5988 81.6134H101.744C101.744 79.5081 100.148 77.4604 96.9558 77.4604ZM105.672 87.5819L107.514 86.0029C107.454 86.0029 108.435 86.9383 108.558 86.9981C108.987 87.3475 109.417 87.5819 109.969 87.6991C111.565 88.1082 114.451 87.991 114.697 85.8857C114.82 84.7137 113.899 84.0724 112.855 83.6633C111.505 83.1945 110.031 83.0176 108.679 82.4338C107.148 81.7903 106.164 80.6779 106.164 79.0393C106.164 74.7692 112.549 74.0659 115.432 76.054C115.555 76.1734 116.968 77.4029 116.906 77.4029L115.066 78.8049C114.145 77.7523 113.284 77.226 111.321 77.226C110.338 77.226 108.987 77.6351 108.741 78.6302C108.375 80.0344 110.031 80.5607 111.136 80.8549C112.609 81.2043 114.205 81.4387 115.495 82.1994C117.274 83.252 117.704 85.5341 117.028 87.29C116.293 89.2205 114.082 89.9812 112.119 90.0387C109.785 90.1559 107.76 89.4549 106.104 87.876C105.981 87.876 105.672 87.5819 105.672 87.5819ZM118.625 87.5819L120.467 86.0029C120.404 86.0029 121.388 86.9383 121.511 86.9981C121.94 87.3475 122.369 87.5819 122.921 87.6991C124.517 88.1082 127.404 87.991 127.647 85.8857C127.77 84.7137 126.851 84.0724 125.807 83.6633C124.457 83.1945 122.984 83.0176 121.631 82.4338C120.1 81.7903 119.116 80.6779 119.116 79.0393C119.116 74.7692 125.499 74.0659 128.385 76.054C128.508 76.1734 129.918 77.4029 129.858 77.4029L128.016 78.8049C127.095 77.7523 126.237 77.226 124.272 77.226C123.29 77.226 121.94 77.6351 121.694 78.6302C121.325 80.0344 122.984 80.5607 124.088 80.8549C125.561 81.2043 127.158 81.4387 128.445 82.1994C130.227 83.252 130.656 85.5341 129.981 87.29C129.243 89.2205 127.035 89.9812 125.07 90.0387C122.738 90.1559 120.713 89.4549 119.054 87.876C118.931 87.876 118.625 87.5819 118.625 87.5819ZM130.594 75.4127V73.8912H130.041V73.5993H131.515V73.8912H130.962V75.4127H130.594ZM133.357 75.4127V74.0084L132.804 75.4127H132.682L132.129 74.0084V75.4127H131.823V73.5993H132.313L132.804 74.8267L133.296 73.5993H133.786V75.4127H133.357Z" fill="white"/>
<path d="M16.4798 89.5726L14.64 84.8911H4.69184L2.85208 89.5726H0.214233L8.19505 69.9688H11.0788L18.997 89.5704L16.4798 89.5726ZM9.54297 72.7772L5.80313 82.4918H13.5983L9.54297 72.7772ZM20.6535 89.5726V69.9688H23.2333V89.5704L20.6535 89.5726ZM27.1008 89.5726V75.7073H29.6783V89.5726H27.1008ZM32.1329 71.2005V71.0833V70.9661C31.1833 70.9342 30.2817 70.5602 29.61 69.9196C28.9383 69.2789 28.5465 68.4193 28.5137 67.5142H28.1425C28.1096 68.4193 27.7178 69.2789 27.0461 69.9196C26.3744 70.5602 25.4729 70.9342 24.5232 70.9661V71.2005C25.4725 71.2324 26.3737 71.6061 27.0453 72.2463C27.7169 72.8864 28.109 73.7455 28.1425 74.6503H28.5137C28.5471 73.7455 28.9392 72.8864 29.6108 72.2463C30.2824 71.6061 31.1836 71.2324 32.1329 71.2005Z" fill="white"/>
<path d="M42.9565 3.85693C42.9565 11.4959 47.5727 26.7737 66.0374 26.7737C84.502 26.7737 90.4005 11.4959 91.0416 3.85693" stroke="white" stroke-width="7" stroke-linecap="round" stroke-linejoin="round"/>
</svg>
