<svg width="141" height="39" viewBox="0 0 141 39" fill="none" xmlns="http://www.w3.org/2000/svg">
<path fill-rule="evenodd" clip-rule="evenodd" d="M116.791 18.0959C104.243 27.3739 85.9913 32.317 70.2492 32.317C48.1951 32.317 28.4223 24.1798 13.3647 10.6431C12.2239 9.57843 13.2126 8.13352 14.6575 8.97006C30.8559 18.4001 50.8568 24.0277 71.542 24.0277C85.459 24.0277 100.821 21.1379 114.966 15.13C117.095 14.2935 118.844 16.5749 116.791 18.0959Z" fill="white"/>
<path fill-rule="evenodd" clip-rule="evenodd" d="M122.036 12.0889C120.439 10.0356 111.389 11.1003 107.358 11.6326C106.141 11.7847 105.913 10.72 107.054 9.95951C114.279 4.86424 126.066 6.38522 127.435 8.05829C128.804 9.73137 127.055 21.595 120.286 27.2226C119.222 28.0592 118.233 27.6029 118.689 26.4621C120.21 22.6597 123.633 14.2182 122.036 12.0889Z" fill="white"/>
</svg>
