<svg width="85" height="85" viewBox="0 0 85 85" fill="none" xmlns="http://www.w3.org/2000/svg">
<path d="M32.0046 62.7954L20.5749 62.785V50.4416C20.5749 47.8042 21.7077 46.4315 24.2065 46.1179H32.0047C37.5659 46.1179 41.1633 49.2848 41.1633 54.4104C41.1633 59.6748 37.6569 62.7902 32.0046 62.7954ZM20.5749 29.5022V26.2531C20.5749 23.4101 21.9069 22.058 24.8269 21.8832H30.6784C35.6932 21.8832 38.6986 24.5925 38.6986 29.1321C38.6986 32.5868 36.6381 36.6225 30.8606 36.6225H20.5749V29.5022ZM46.5992 41.8201L44.533 40.7713L46.3374 39.3781C48.4378 37.7484 51.9555 34.0828 51.9555 27.7594C51.9555 18.0738 43.6393 11.8274 30.7695 11.8274H16.0838V11.8223H14.4103C10.5966 11.9508 7.53996 14.7527 7.50012 18.2177V73.1751H31.0598C45.3641 73.1751 54.5967 66.1422 54.5967 55.2484C54.5967 49.3825 51.614 44.37 46.5992 41.8201Z" fill="white"/>
<path d="M60.7345 65.5831C60.7345 61.3848 64.4835 57.9883 69.1025 57.9883C73.7333 57.9883 77.4998 61.3848 77.4998 65.5831C77.4998 69.776 73.7333 73.1778 69.1025 73.1778C64.4835 73.1778 60.7345 69.776 60.7345 65.5831Z" fill="white"/>
</svg>
