<svg width="140" height="61" viewBox="0 0 140 61" fill="none" xmlns="http://www.w3.org/2000/svg">
<g clip-path="url(#clip0_2316_1066)">
<path d="M27.1922 17.3716C19.0809 17.3716 12.3217 20.8124 12.3217 31.1946C12.3217 39.4195 16.8668 44.5987 27.4013 44.5987C39.8012 44.5987 40.596 36.4306 40.596 36.4306H34.5878C34.5878 36.4306 33.2997 40.8288 27.035 40.8288C21.9325 40.8288 18.2627 37.3819 18.2627 32.551H41.2247V29.5191C41.2247 24.7396 38.1905 17.3716 27.1922 17.3716ZM26.9824 21.2462C31.8394 21.2462 35.1506 24.2217 35.1506 28.6813H18.3954C18.3954 23.9467 22.7177 21.2462 26.9824 21.2462Z" fill="white"/>
<path d="M41.2201 7.31787V39.3848C41.2201 41.2049 41.0901 43.7607 41.0901 43.7607H46.8205C46.8205 43.7607 47.0265 41.9253 47.0265 40.2474C47.0265 40.2474 49.8578 44.6771 57.5564 44.6771C65.6632 44.6771 71.17 39.0483 71.17 30.9849C71.17 23.4831 66.112 17.4496 57.5694 17.4496C49.5701 17.4496 47.0844 21.7692 47.0844 21.7692V7.31787H41.2201ZM56.0903 21.4159C61.5956 21.4159 65.0966 25.5019 65.0966 30.9849C65.0966 36.8646 61.0532 40.7108 56.1298 40.7108C50.254 40.7108 47.0844 36.1227 47.0844 31.0371C47.0844 26.2982 49.9284 21.4159 56.0903 21.4159Z" fill="white"/>
<path d="M85.411 17.3716C73.2083 17.3716 72.4257 24.0529 72.4257 25.1208H78.4995C78.4995 25.1208 78.8179 21.2201 84.9921 21.2201C89.0041 21.2201 92.113 23.0568 92.113 26.5869V27.8436H84.9921C75.5385 27.8436 70.5408 30.6092 70.5408 36.2215C70.5408 41.7444 75.1584 44.7495 81.399 44.7495C89.904 44.7495 92.6435 40.0501 92.6435 40.0501C92.6435 41.9194 92.7874 43.7613 92.7874 43.7613H98.1868C98.1868 43.7613 97.9777 41.4782 97.9777 40.0175V27.3921C97.9777 19.1135 91.3002 17.3716 85.411 17.3716ZM92.113 31.6135V33.289C92.113 35.4743 90.7643 40.9074 82.8256 40.9074C78.4784 40.9074 76.6145 38.7379 76.6145 36.2211C76.6145 31.643 82.8912 31.6135 92.113 31.6135Z" fill="white"/>
<path d="M94.7086 18.4194H101.541L111.348 38.0661L121.132 18.4194H127.322L109.501 53.3966H103.008L108.15 43.6462L94.7086 18.4194Z" fill="white"/>
</g>
<defs>
<clipPath id="clip0_2316_1066">
<rect width="139.643" height="60.7143" fill="white" transform="translate(0.000244141)"/>
</clipPath>
</defs>
</svg>
