<svg width="111" height="47" viewBox="0 0 111 47" fill="none" xmlns="http://www.w3.org/2000/svg">
<g clip-path="url(#clip0_2316_2027)">
<path fill-rule="evenodd" clip-rule="evenodd" d="M110.544 32.0907C108.059 32.0907 105.59 32.0576 103.122 32.1073C102.26 32.1239 102.028 31.8588 102.028 30.9972C102.078 25.7117 102.078 20.4261 102.028 15.1406C102.028 14.279 102.26 14.0139 103.122 14.0305C105.59 14.0802 108.059 14.0471 110.544 14.0471C110.544 14.8755 110.544 15.6874 110.544 16.4993C109.948 17.0295 109.219 16.9798 108.523 16.9467C107.396 16.8969 106.966 17.4106 107.048 18.5041C107.065 18.8521 107.065 19.2166 107.048 19.5646C106.949 20.6913 107.363 21.2877 108.573 21.2712C109.484 21.2546 110.23 21.4866 110.246 22.7127C110.263 23.9388 109.699 24.5353 108.556 24.5518C107.363 24.5518 106.949 25.1483 107.048 26.275C107.065 26.5733 107.048 26.8715 107.048 27.1863C107.065 29.0752 107.065 29.0917 108.97 29.1912C109.534 29.2243 110.097 29.2243 110.528 29.6385C110.544 30.4504 110.544 31.2623 110.544 32.0907Z" fill="white"/>
<path fill-rule="evenodd" clip-rule="evenodd" d="M1.75422 27.799C1.02518 26.9043 1.02518 25.7279 0.544678 24.7503C0.544678 23.839 0.544678 22.9112 0.544678 21.9999C1.6548 18.9015 3.64309 16.7144 6.92375 15.919C7.03973 16.0185 7.17228 16.0516 7.32141 16.035C7.43739 16.035 7.5368 16.0847 7.63622 16.0019C7.5368 16.0019 7.47053 15.9356 7.42082 15.8362C9.47538 15.2729 11.0329 16.035 11.414 17.7913C11.8282 19.5808 10.834 20.9229 8.77948 21.3371C8.10015 21.4697 7.38768 21.5194 6.70835 21.6851C3.97446 22.3644 2.84777 24.3858 2.40041 26.9706C1.95304 27.07 2.301 27.7825 1.75422 27.799Z" fill="white"/>
<mask id="mask0_2316_2027" style="mask-type:luminance" maskUnits="userSpaceOnUse" x="14" y="0" width="22" height="47">
<path d="M14.3779 0.725586H35.5863V46.5389H14.3779V0.725586Z" fill="white"/>
</mask>
<g mask="url(#mask0_2316_2027)">
<path fill-rule="evenodd" clip-rule="evenodd" d="M30.4848 37.0444C30.2528 36.7462 30.2528 36.3982 30.3025 36.0337C30.5345 35.2716 30.1534 34.7911 29.5901 34.3768C29.1758 33.6147 29.0599 32.8691 29.6066 32.1234C29.5238 30.1186 28.977 28.2132 28.3971 26.3243C26.3922 19.647 23.3104 13.5496 18.6545 8.2972C17.3124 6.80599 15.8875 5.39762 14.4791 3.97269C17.4781 3.93955 19.8806 5.49704 22.1671 7.08766C28.745 11.6773 32.705 17.9569 33.8317 25.9929C33.8649 26.1917 33.8317 26.3906 33.8317 26.5894C33.7489 26.987 33.4838 27.3847 33.9311 27.7327C34.2625 28.4451 34.1797 29.2073 34.13 29.9695C33.9477 30.9636 33.9477 31.9743 34.13 32.985C34.1465 33.5484 34.1631 34.1117 34.1797 34.6751C34.2294 34.8076 34.246 34.9567 34.2625 35.1059C34.1962 35.7521 34.4116 36.448 33.8483 36.9782C33.1027 39.3641 32.7879 41.8826 31.4955 44.0863C30.6836 43.7715 30.8824 43.0424 30.8493 42.4294C30.8162 41.8329 30.899 41.2198 30.7996 40.6233C30.7333 40.5074 30.667 40.3914 30.6008 40.2754C30.6008 39.7783 30.6008 39.2813 30.6008 38.7842C30.667 38.2043 30.9156 37.6078 30.4848 37.0444Z" fill="white"/>
</g>
<path fill-rule="evenodd" clip-rule="evenodd" d="M49.3207 23.0772C49.3207 20.4261 49.3539 17.7916 49.3042 15.1406C49.2876 14.2956 49.5196 14.0139 50.3977 14.0305C52.6014 14.0967 54.8216 14.0636 57.0419 14.047C57.7046 14.047 58.2183 14.0305 58.1354 14.9749C58.0526 15.7536 58.2183 16.5655 57.0253 16.4993C56.2631 16.4661 55.501 16.5655 54.7554 16.4827C53.7115 16.3501 53.4298 16.8306 53.5624 17.7585C53.5955 18.0567 53.5624 18.3716 53.5624 18.6864C53.5955 19.6308 53.3139 20.8238 53.7778 21.47C54.2086 22.0996 55.4678 21.6688 56.346 21.6688C56.9922 21.6854 57.2904 21.8345 57.2076 22.5304C57.1247 23.1269 57.4727 23.9222 56.5117 24.121C56.4123 24.1541 56.3129 24.121 56.1969 24.1376C55.3684 24.2204 54.1589 23.7399 53.7778 24.3364C53.347 25.0489 53.5955 26.1921 53.5624 27.1531C53.5624 27.6005 53.6287 28.0644 53.5624 28.5118C53.3967 29.5225 53.8772 29.7379 54.7554 29.6551C55.4016 29.5888 56.0643 29.6385 56.7105 29.6385C57.423 29.655 58.2349 29.3734 58.152 30.6989C58.0857 31.7262 57.8206 32.1404 56.7436 32.1073C54.6394 32.041 52.5185 32.041 50.3977 32.1073C49.5361 32.1238 49.2876 31.8753 49.3042 30.9971C49.3539 28.3627 49.3207 25.7116 49.3207 23.0772Z" fill="white"/>
<path fill-rule="evenodd" clip-rule="evenodd" d="M89.0241 24.287C89.0241 22.0502 88.991 19.8133 89.0407 17.5765C89.0738 16.6984 88.7922 16.3836 87.9471 16.483C87.5495 16.5327 87.1353 16.4498 86.7376 16.4995C85.7435 16.6487 85.3292 16.3836 85.3458 15.2403C85.3458 14.1467 85.76 14.0308 86.6548 14.0308C89.7863 14.0805 92.9179 14.0639 96.0494 14.0473C96.7784 14.0308 97.3086 14.0308 97.2258 15.0415C97.1595 15.8865 97.1761 16.4995 96.0494 16.5161C93.564 16.5824 93.564 16.6487 93.564 19.2169C93.564 23.1271 93.5475 27.054 93.5806 30.9643C93.5972 31.7927 93.4315 32.091 92.5368 32.1076C89.0241 32.1573 89.0241 32.207 89.0241 28.7275C89.0241 27.2528 89.0241 25.7616 89.0241 24.287Z" fill="white"/>
<path fill-rule="evenodd" clip-rule="evenodd" d="M62.66 22.8951C62.66 20.3104 62.6932 17.7256 62.6435 15.1243C62.6269 14.2627 62.8754 14.0473 63.737 14.0307C67.1999 13.981 67.1999 13.9479 67.1999 17.4274C67.1999 21.0891 67.2331 24.7509 67.1834 28.396C67.1668 29.3902 67.4319 29.8044 68.4261 29.6553C68.8237 29.589 69.2379 29.6884 69.6356 29.6221C70.6297 29.473 70.8617 29.9038 70.8783 30.8814C70.8948 31.9252 70.5303 32.1406 69.5859 32.1075C67.7799 32.0412 65.9573 32.0081 64.1512 32.1075C62.9086 32.1738 62.5938 31.6933 62.6435 30.5169C62.7097 27.9818 62.66 25.4468 62.66 22.8951Z" fill="white"/>
<path fill-rule="evenodd" clip-rule="evenodd" d="M75.9995 22.9445C75.9995 20.3928 76.0326 17.8578 75.9663 15.3227C75.9498 14.3783 76.132 14.0138 77.1759 14.0303C80.5394 14.0469 80.5394 13.9972 80.5394 17.4104C80.5394 21.8675 80.5062 26.3411 80.5559 30.8147C80.5725 31.7592 80.3903 32.1237 79.3464 32.1071C75.9995 32.0905 75.9995 32.1403 75.9995 28.727C75.9995 26.805 75.9995 24.8665 75.9995 22.9445Z" fill="white"/>
<path fill-rule="evenodd" clip-rule="evenodd" d="M37.8231 28.0643C36.9781 27.7494 36.481 27.037 36.0171 26.3245C35.3709 25.3635 35.1224 24.5848 36.6136 24.0877C37.8231 23.69 37.6077 22.5468 37.3923 21.6023C36.9947 19.8626 36.0668 18.3217 35.1555 16.7973C33.6477 14.2954 31.8914 11.9592 30.0522 9.57324C34.4596 10.12 41.1204 19.1833 41.1038 23.8392C40.9215 24.3528 40.905 24.8499 41.1204 25.3469C41.2032 26.7222 40.3913 27.4678 39.2978 28.0311C38.8007 27.9317 38.3202 27.882 37.8231 28.0643Z" fill="white"/>
<path fill-rule="evenodd" clip-rule="evenodd" d="M46.5402 17.6922C45.7946 19.316 44.6182 20.161 43.3259 19.8296C42.0003 19.4982 41.0725 18.5869 40.9731 17.1952C40.8736 15.8199 41.5198 14.7595 42.9779 14.3784C43.5744 14.5441 44.1709 14.4944 44.7674 14.4116C45.7118 14.6601 46.2586 15.3063 46.5071 16.2176C46.4243 16.7147 46.3746 17.2117 46.5402 17.6922Z" fill="white"/>
<path fill-rule="evenodd" clip-rule="evenodd" d="M34.1806 34.6758C35.7878 35.4711 36.7322 36.9623 37.9583 38.1387C37.8755 38.2878 37.7926 38.4204 37.7098 38.5529C36.5168 38.0393 35.3238 37.5257 34.1143 36.9954C33.9983 36.2167 33.932 35.438 34.1806 34.6758Z" fill="white"/>
<path fill-rule="evenodd" clip-rule="evenodd" d="M30.8321 40.3755C31.4783 40.5909 31.0806 41.1377 31.1303 41.5022C31.2297 42.3638 30.9812 43.2916 31.4948 44.0869C31.3788 44.4515 31.2463 44.816 31.1303 45.1805C30.8818 45.2468 30.7161 45.1308 30.7161 44.8988C30.7492 43.391 30.5504 41.8833 30.8321 40.3755Z" fill="white"/>
<path fill-rule="evenodd" clip-rule="evenodd" d="M34.1281 32.9858C33.7138 31.9751 33.7138 30.9644 34.1281 29.9702C34.1281 30.9644 34.1281 31.9751 34.1281 32.9858Z" fill="white"/>
<path fill-rule="evenodd" clip-rule="evenodd" d="M44.7656 14.4115C44.1692 14.8091 43.5561 14.8257 42.9762 14.3783C43.5727 14.1132 44.1692 14.1464 44.7656 14.4115Z" fill="white"/>
<path fill-rule="evenodd" clip-rule="evenodd" d="M41.1211 25.3471C40.7069 24.8501 40.7069 24.353 41.1046 23.8394C41.1046 24.353 41.1046 24.8501 41.1211 25.3471Z" fill="white"/>
<path fill-rule="evenodd" clip-rule="evenodd" d="M33.9288 27.7331C33.2826 27.4017 33.5477 27.0041 33.8294 26.5898C33.8625 26.9709 33.8957 27.352 33.9288 27.7331Z" fill="white"/>
<path fill-rule="evenodd" clip-rule="evenodd" d="M46.541 17.692C46.1765 17.2115 46.1931 16.731 46.5079 16.2339C46.6736 16.7144 46.6404 17.2115 46.541 17.692Z" fill="white"/>
<path fill-rule="evenodd" clip-rule="evenodd" d="M37.8242 28.0645C38.3047 27.6835 38.8018 27.7 39.2989 28.0314C38.8184 28.2137 38.3213 28.2302 37.8242 28.0645Z" fill="white"/>
<path fill-rule="evenodd" clip-rule="evenodd" d="M29.6052 32.1237C29.7046 32.9356 29.4064 33.7972 29.9863 34.5428C30.1188 34.7748 30.0857 34.9736 29.8869 35.1559C25.8109 33.1344 21.7349 31.1627 17.3938 29.7875C15.8198 29.2904 14.2126 28.8928 12.6219 28.4454C11.926 28.1803 11.2301 28.114 10.5508 28.4951C8.74479 29.075 7.20387 29.9698 6.59082 31.958C6.37542 32.6539 5.94463 32.4717 5.58011 32.1237C4.66881 31.2456 3.82379 30.3343 3.6084 29.0088C3.82379 28.2134 3.74095 27.4181 3.6581 26.6062C4.22145 24.2037 5.87835 22.9611 8.14831 22.3811C9.67266 21.6355 13.4007 22.5634 13.9309 22.696C17.1121 23.5741 20.0449 25.0488 22.8947 26.6725C24.9659 27.8655 26.7387 29.4561 28.727 30.7651C29.2407 31.113 29.3235 31.6598 29.6052 32.1237Z" fill="white"/>
<path fill-rule="evenodd" clip-rule="evenodd" d="M0.80896 13.7657C0.80896 13.1526 0.80896 12.523 0.80896 11.8934C1.17348 10.8164 1.86938 10.1039 2.99607 9.8554C3.49314 9.97138 3.97364 10.0211 4.47071 9.82227C6.01163 10.1039 6.84008 11.0649 6.9395 12.639C7.03891 14.2462 6.34301 15.3563 4.76896 15.8534C4.17247 15.6546 3.57599 15.7208 2.9795 15.8534C1.83624 15.6048 1.17348 14.8427 0.80896 13.7657Z" fill="white"/>
<path fill-rule="evenodd" clip-rule="evenodd" d="M1.75427 27.7994C1.87025 27.4349 1.96967 27.0703 2.08565 26.7058C2.10222 26.6561 2.18506 26.623 2.25134 26.5898C2.30105 26.7058 2.35075 26.8384 2.40046 26.9709C2.40046 27.468 2.40046 27.9651 2.40046 28.4787C1.85368 28.4787 1.85368 28.0976 1.75427 27.7994Z" fill="white"/>
<path fill-rule="evenodd" clip-rule="evenodd" d="M29.8879 35.156C29.9211 34.9406 29.9542 34.7418 29.9874 34.543C30.6667 34.6424 30.7164 34.9241 30.3022 36.0342C30.153 35.7359 30.0205 35.4543 29.8879 35.156Z" fill="white"/>
<path fill-rule="evenodd" clip-rule="evenodd" d="M3.65804 26.6064C3.98942 27.4183 4.03913 28.2136 3.60834 29.009C3.42608 28.2136 3.42608 27.4018 3.65804 26.6064Z" fill="white"/>
<path fill-rule="evenodd" clip-rule="evenodd" d="M10.5521 28.4955C11.1652 27.783 11.9439 28.1807 12.6564 28.1973C12.673 28.1973 12.7061 28.2801 12.6895 28.3132C12.6895 28.363 12.6564 28.3961 12.6233 28.4458C11.9439 28.4624 11.248 28.4789 10.5521 28.4955Z" fill="white"/>
<path fill-rule="evenodd" clip-rule="evenodd" d="M2.98096 15.853C3.57744 15.4222 4.17393 15.4388 4.77041 15.853C4.17393 16.0684 3.57744 16.1182 2.98096 15.853Z" fill="white"/>
<path fill-rule="evenodd" clip-rule="evenodd" d="M30.483 37.0449C31.1292 37.5917 30.8807 38.1882 30.599 38.7847C30.5659 38.2048 30.5327 37.6248 30.483 37.0449Z" fill="white"/>
<path fill-rule="evenodd" clip-rule="evenodd" d="M4.47074 9.82218C3.99024 10.2198 3.49317 10.1867 2.99609 9.85532C3.4766 9.68963 3.97367 9.68963 4.47074 9.82218Z" fill="white"/>
<path fill-rule="evenodd" clip-rule="evenodd" d="M7.42041 15.8364C7.65237 15.8696 7.88434 15.9027 8.41455 15.9855C7.70208 16.2175 7.28786 16.3335 6.92334 15.9193C7.08903 15.9027 7.25472 15.8696 7.42041 15.8364Z" fill="white"/>
<path d="M51.4111 41.734L51.2951 40.3422H50.4501L50.3341 41.734H47.7328L49.5554 34.0957H52.1733L53.9959 41.734H51.4111ZM51.0632 37.0947L50.8809 35.8189L50.6655 37.0947L50.3341 39.5469H51.4111L51.0632 37.0947ZM62.2472 38.7516V41.0547L60.4744 41.734H57.6742L55.9345 41.0547V34.775L57.6742 34.0957H60.4744L62.2472 34.775V37.0781H59.6293V34.9076H58.5524V40.9387H59.6293V38.7516H62.2472ZM68.4109 41.734L68.2784 40.3422H67.4499L67.3339 41.734H64.7326L66.5552 34.0957H69.1731L70.9957 41.734H68.4109ZM68.063 37.0947L67.8641 35.8189L67.6653 37.0947L67.3339 39.5469H68.4109L68.063 37.0947ZM77.6067 41.734H73.0668V34.0957H77.6067L79.363 34.775V41.0547L77.6067 41.734ZM76.7617 34.9076H75.6681V40.9387H76.7617V34.9076ZM87.6144 40.9387V41.734H82.246V34.0957H87.6144V34.9076H84.8474V37.5089H87.0014V38.3208H84.8474V40.9387H87.6144ZM97.6221 41.734V37.3267L96.4457 41.734H94.0432L92.8834 37.3267V41.734H90.282V34.0957H93.165L94.3414 37.3267L95.2362 40.3257L96.164 37.3267L97.3238 34.0957H100.207V41.734H97.6221ZM106.851 38.7185V41.734H104.266V38.7185L102.344 34.0957H104.946L105.277 35.3715L105.575 37.045L105.84 35.3715L106.205 34.0957H108.79L106.851 38.7185Z" fill="white"/>
</g>
<defs>
<clipPath id="clip0_2316_2027">
<rect width="110" height="45.8133" fill="white" transform="translate(0.544678 0.725586)"/>
</clipPath>
</defs>
</svg>
