<svg width="141" height="62" viewBox="0 0 141 62" fill="none" xmlns="http://www.w3.org/2000/svg">
<g clip-path="url(#clip0_2316_1077)">
<path d="M23.6928 24.0576V9.92528C23.6928 9.40162 23.752 9.08755 24.7607 9.08755H38.3406C40.7131 9.08755 42.0178 10.8675 42.9669 14.2172L43.7377 16.8871H46.0503C46.465 9.29776 46.8205 6 46.8205 6C46.8205 6 41.0091 6.57559 37.5694 6.57559H20.1947L10.8827 6.31376V8.51227L14.0264 9.03562C16.2206 9.40224 16.7533 9.82049 16.9326 11.6007C16.9326 11.6007 17.1109 16.8349 17.1109 25.4719C17.1109 34.1076 16.9326 39.2901 16.9326 39.2901C16.9326 40.8602 16.2206 41.4357 14.0264 41.8033L10.8827 42.327V44.5242L20.1947 44.263H35.7321C39.2309 44.263 47.3553 44.5242 47.3553 44.5242C47.5325 42.6395 48.7195 34.1076 48.8974 33.1666H46.7032L44.3902 37.8252C42.5515 41.4883 39.8834 41.7504 36.9177 41.7504H28.0809C25.1155 41.7504 23.6921 40.7034 23.6921 38.453V26.5186C23.6921 26.5186 30.156 26.5186 32.4091 26.6759C34.0699 26.781 35.0775 27.1996 35.612 29.2407L36.324 31.9626H38.8726L38.6954 25.1049L39.0509 18.1963H36.5016L35.6719 21.2319C35.1374 23.2208 34.7823 23.588 32.469 23.7967C29.8601 24.0592 23.6918 24.0066 23.6918 24.0066V24.0585H23.6928V24.0576ZM58.8594 11.3912C58.029 14.6364 57.1986 17.1486 54.2927 18.8238C52.5139 19.8702 50.7344 20.2362 50.0237 20.2887V22.2777H55.3014V38.3466C55.3014 42.8488 58.6822 45.0476 63.1887 45.0476C66.6878 45.0476 70.3047 43.7391 71.5505 41.0166L70.3047 39.6032C69.7114 40.4935 67.8149 41.8018 65.4424 41.8018C62.8335 41.8018 61.4102 40.2311 61.4102 36.2539V22.0693L70.1877 22.6455L70.6616 19.0853L61.4105 19.3997V11.4431L58.8594 11.3912ZM77.5997 36.1077L75.3463 36.16C75.4647 37.3111 75.5246 38.7773 75.5246 40.1381C75.5246 41.5514 75.4654 42.86 75.3463 43.4878C75.3463 43.4878 79.8535 44.9521 84.4198 44.9521C90.5874 44.9521 95.51 42.3351 95.51 37.2054C95.51 28.4129 80.5655 29.7218 80.5655 23.806C80.5655 21.3463 83.056 20.4038 85.784 20.4038C87.919 20.4038 89.6978 21.0842 90.0537 22.0796L91.5366 26.0052L93.7311 25.9007C93.9094 23.8067 94.0274 21.3989 94.3836 19.4625C92.4853 18.7296 88.5116 18.3101 86.0229 18.3101C80.2097 18.3101 75.5257 20.5611 75.5257 25.5863C75.5257 34.3271 90.1136 32.5475 90.1136 38.9866C90.1136 41.2887 88.5116 42.9116 84.8951 42.9116C81.5749 42.9116 79.9137 41.3941 79.2626 39.8753L77.5997 36.1077ZM113.343 42.1547C109.91 50.6194 105.707 52.8123 101.919 52.8123C100.32 52.8123 99.551 52.1848 99.3132 51.1938L98.4254 47.1174L95.9387 47.2218C95.4652 49.6256 94.9917 52.2911 94.3413 54.485C95.8214 55.4763 98.3063 56 100.261 56C104.346 56 110.561 55.5289 116.243 43.6172L125.774 23.7637C126.544 22.1436 126.839 21.9869 129.088 21.2027L130.332 20.7857V18.9569L124.708 19.2181L118.67 18.9569V20.7857L120.208 21.2027C121.747 21.6215 122.458 22.1436 122.458 23.0843C122.458 23.5542 122.28 24.0246 121.984 24.7554C121.096 26.7421 115.59 38.5494 114.112 41.0579L115.59 40.5868C112.985 34.8922 109.021 25.3823 108.428 23.7641C108.31 23.4503 108.251 23.1891 108.251 22.9266C108.251 22.0911 108.902 21.4116 110.323 21.1507L112.276 20.786V18.9572L104.166 19.2184L97.7137 18.9572V20.786L98.7794 21.0991C100.259 21.517 100.615 21.883 101.502 23.7115C106.414 33.639 108.724 39.0718 111.86 46.1782L113.343 42.1547Z" fill="white"/>
</g>
<defs>
<clipPath id="clip0_2316_1077">
<rect width="115" height="50" fill="white" transform="translate(13.1072 6)"/>
</clipPath>
</defs>
</svg>
