<svg width="85" height="82" viewBox="0 0 85 82" fill="none" xmlns="http://www.w3.org/2000/svg">
<g clip-path="url(#clip0_2316_3228)">
<path d="M3.73675 56.5231C3.73675 56.8439 3.66126 66.5067 3.66126 66.5067H0L0.0566175 44.1616L26.5159 44.3692V48.3702L3.81224 48.54L3.86886 52.0126L20.8352 52.0503L20.8541 56.5231H3.73675Z" fill="white"/>
<path d="M47.5558 58.8823L50.4244 58.9767C50.4244 58.9767 52.2928 58.2029 53.5761 57.0139C54.8406 55.825 55.0859 54.3529 55.1803 54.0698C55.2747 53.8056 55.0859 49.3139 55.0859 49.3139C55.0859 49.3139 53.5761 46.785 52.4438 46.1056C51.3114 45.4073 50.2735 44.6902 46.6499 44.5958C43.97 44.5203 28.9098 44.5392 28.9098 44.5392C28.9098 44.6902 29.0042 66.771 29.0042 66.771L32.3068 66.8087L32.4012 59.1088L42.045 59.1654L50.1791 66.6766L56.0107 66.6389L47.5558 58.8823ZM32.0615 54.5794L32.0238 48.8044L31.986 48.4458L46.0838 48.4836C46.0838 48.4836 50.934 48.861 51.085 51.4654C51.2171 54.0698 46.1404 54.6737 46.1404 54.6737L32.0804 54.5794H32.0615Z" fill="white"/>
<path d="M57.7485 56.7117C59.315 66.1291 70.8272 66.6953 72.5635 66.7896C75.6397 66.9217 78.5838 66.1857 80.3578 65.5252C81.9808 64.9213 85.0004 62.8075 85.0004 62.8075L82.7735 59.7313C82.7735 59.7313 78.999 62.9208 72.4502 62.7509C65.8826 62.5622 61.4853 57.8063 61.24 56.523C61.1456 56.2022 61.0135 56.1078 60.9757 55.5605C60.9569 55.0321 61.1267 54.4281 61.1267 54.4281C61.1645 53.1259 65.7505 48.3889 72.3181 48.2002C78.8857 48.0304 82.6602 51.2198 82.6602 51.2198L84.8872 48.1436C84.8872 48.1436 81.8487 46.0488 80.2446 45.4448C78.4517 44.7654 75.5076 44.0294 72.4313 44.1615C70.6951 44.2559 59.1828 44.822 57.6353 54.2394C57.6353 54.2394 57.5976 55.0509 57.6353 55.6737C57.673 56.2965 57.7485 56.7306 57.7485 56.7306V56.7117Z" fill="white"/>
<path d="M66.7522 78.4337C67.1863 81.0759 70.4135 81.2457 70.9041 81.2646C71.7534 81.3023 72.5838 81.0947 73.0933 80.906C73.5463 80.7362 74.3955 80.1511 74.3955 80.1511L73.7728 79.283C73.7728 79.283 72.7159 80.1889 70.8664 80.1322C69.0358 80.0756 67.7902 78.7357 67.7336 78.396C67.6958 78.3016 67.6581 78.2639 67.6581 78.1129C67.6392 77.9619 67.6958 77.792 67.6958 77.792C67.6958 77.4335 68.998 76.0935 70.8286 76.0558C72.6781 75.9992 73.735 76.905 73.735 76.905L74.3578 76.0369C74.3578 76.0369 73.5085 75.433 73.0556 75.282C72.546 75.0933 71.7345 74.8857 70.8664 74.9234C70.3757 74.9423 67.1485 75.0933 66.7144 77.7354C66.7144 77.7354 66.6956 77.9619 66.7144 78.1506C66.7144 78.3205 66.7522 78.4337 66.7522 78.4337Z" fill="white"/>
<path d="M0.0360107 80.9819V74.9805H1.71566V79.6608H7.32079V80.9819H0.0360107Z" fill="white"/>
<path d="M14.493 74.9805L18.3996 80.9819H16.5878L15.7386 79.6797H11.5866L10.7185 80.9819H8.90674L12.8322 74.9805H14.493ZM12.3982 78.3964H14.9082L13.6626 76.4714L12.3982 78.3964Z" fill="white"/>
<path d="M32.9529 74.9805V76.3204H27.2157V77.4905H32.1603V78.7927H27.2157V80.9819H25.536V74.9805H32.9529Z" fill="white"/>
<path d="M40.8578 74.9805C41.4428 74.9805 41.9524 75.1692 42.3864 75.5466C42.8016 75.9241 43.0092 76.377 43.0092 76.9055C43.0092 77.3962 42.8394 77.8113 42.4619 78.1699C42.1033 78.5285 41.6504 78.7172 41.1031 78.7927L43.1036 80.9819H41.1597L39.2913 78.8116H36.4982V80.9819H34.7997V74.9805H40.8578ZM36.4793 77.4905H40.6879C40.8955 77.4905 41.0465 77.4339 41.1597 77.3207C41.2918 77.2074 41.3484 77.0753 41.3484 76.9055C41.3484 76.7356 41.2918 76.5846 41.1597 76.4903C41.0465 76.377 40.8955 76.3204 40.6879 76.3204H36.4793V77.4905Z" fill="white"/>
<path d="M50.273 74.9805L54.1796 80.9819H52.3679L51.5186 79.6797H47.3478L46.4985 80.9819H44.6868L48.5934 74.9805H50.273ZM48.1782 78.3964H50.6882L49.4426 76.4714L48.1782 78.3964Z" fill="white"/>
<path d="M57.448 74.9805L62.77 79.2079V74.9805H64.4685V80.9819H62.77L57.448 76.7734V80.9819H55.7683V74.9805H57.448Z" fill="white"/>
<path d="M84.4156 74.9805V76.3204H78.4896V77.3018H83.6229V78.6229H78.4896V79.6608H84.4156V80.9819H76.8099V74.9805H84.4156Z" fill="white"/>
<path d="M42.4816 24.5908C42.6137 24.3832 47.9358 18.0798 50.5968 20.7975C54.2958 24.5908 49.1059 25.6477 49.4456 27.3085C49.7853 28.9881 50.2571 29.441 50.5968 28.9126C50.9365 28.3842 50.7478 27.7803 51.6914 27.384C52.6539 26.9876 57.6928 25.459 57.9004 20.7408C58.108 16.0227 54.56 14.494 52.2387 14.1543C49.9174 13.8335 42.0098 14.0977 41.0473 23.5906C40.9718 24.3832 42.4816 24.5908 42.4816 24.5908Z" fill="white"/>
<path d="M37.9913 24.6476C37.8404 24.4588 32.5183 18.1365 29.8573 20.8731C26.1583 24.6476 31.3671 25.7233 31.0274 27.3841C30.6877 29.0448 30.197 29.5167 29.8573 28.9694C29.5176 28.4409 29.7252 27.8559 28.7627 27.4407C27.8191 27.0444 22.7612 25.5157 22.5536 20.7976C22.346 16.0794 25.8941 14.5508 28.2154 14.2299C30.5367 13.8902 38.4632 14.1544 39.4256 23.6662C39.5011 24.4588 37.9913 24.6664 37.9913 24.6664V24.6476Z" fill="white"/>
<path d="M40.2712 22.0242C40.2146 21.8355 39.5352 18.4762 38.8558 17.4759C38.1764 16.4757 35.5154 13.022 35.3644 10.8894C35.2323 8.77571 39.4031 0.0566187 40.3467 0H40.3656C41.3092 0.0566187 45.4801 8.77571 45.3479 10.8894C45.2158 13.022 42.5548 16.4757 41.8565 17.4759C41.1771 18.4762 40.5166 21.8544 40.4411 22.062L40.2712 22.0242Z" fill="white"/>
<path d="M43.9154 27.157C43.9154 27.7232 43.5568 28.2139 42.8397 28.6291C42.1037 29.0443 41.2355 29.233 40.2164 29.233C39.1784 29.233 38.3103 29.0443 37.5931 28.6291C36.8571 28.2139 36.4985 27.7232 36.4985 27.157C36.4985 26.572 36.8571 26.0813 37.5931 25.685C38.3103 25.2698 39.1784 25.0811 40.2164 25.0811C41.2355 25.0811 42.1037 25.2698 42.8397 25.685C43.5568 26.0813 43.9154 26.572 43.9154 27.157Z" fill="white"/>
<path d="M40.1413 37.0279C39.9148 36.9902 39.4241 35.99 39.141 35.2917C38.8579 34.5934 39.0278 33.2157 39.0466 33.3667C39.0844 33.5177 38.6315 34.0083 37.4236 34.4613C36.1969 34.9331 35.6496 33.3289 36.0082 33.3101C36.3479 33.2723 36.7253 33.1591 37.5746 32.6873C38.4239 32.2343 38.3295 29.5922 38.3861 29.6865C38.4427 29.7809 40.028 29.7432 40.1224 29.7432H40.2734C40.3677 29.7432 41.9153 29.7809 41.9719 29.7054C42.0285 29.6111 41.9341 32.2343 42.7834 32.7061C43.6327 33.1591 44.0101 33.2723 44.3687 33.3101C44.7084 33.3478 44.18 34.9331 42.9533 34.4802C41.7265 34.0084 41.2736 33.5177 41.3113 33.3667C41.3491 33.2157 41.5001 34.5934 41.217 35.3106C40.9339 36.0088 40.4243 36.9902 40.2356 37.0279" fill="white"/>
</g>
<defs>
<clipPath id="clip0_2316_3228">
<rect width="85.0004" height="81.2695" fill="white"/>
</clipPath>
</defs>
</svg>
