<svg width="86" height="128" viewBox="0 0 86 128" fill="none" xmlns="http://www.w3.org/2000/svg">
<path d="M77.9553 77.3065C78.4072 68.6602 75.4548 54.6212 68.2545 43.0225C68.1039 42.7213 67.7123 42.8719 67.8026 43.1732C68.2545 44.8904 68.4052 48.0838 65.6034 47.9332C60.6928 47.6319 65.754 36.9972 54.8482 29.7066C54.6072 29.556 54.3963 29.797 54.4566 30.0079C55.27 31.4238 55.6014 35.8826 53.9143 37.3889C52.4984 38.5337 49.9979 38.2324 47.5878 34.2859C43.5207 27.5978 45.0873 20.5783 47.8288 16.1196C48.0698 15.8183 47.7384 15.6677 47.5275 15.7279C32.5848 20.6386 29.6023 38.2625 26.4088 44.6795C25.8666 45.7942 25.4147 46.3364 24.541 46.2461C21.7694 46.0954 23.7276 40.2208 24.6916 38.2625C24.8423 37.9613 24.541 37.8106 24.3 38.0215C16.6177 46.0051 9.62839 59.7126 8.33295 72.3959C8.42333 72.0946 8.18232 73.39 8.09194 74.4445C8.09194 74.8361 8.00156 75.2579 8.00156 75.5893V77.0052C7.8208 96.3464 23.3359 112.103 42.6771 112.283C62.0183 112.434 77.7745 96.9188 77.9553 77.6077V77.3065ZM42.8278 93.5145C33.8802 93.4241 26.7101 86.1335 26.7402 77.1558C26.8306 68.1782 34.1212 61.0382 43.0989 61.0984C52.0766 61.1888 59.2166 68.4794 59.1563 77.4571C59.066 86.4951 51.8055 93.5748 42.8278 93.5145Z" fill="white"/>
</svg>
