<svg width="98" height="55" viewBox="0 0 98 55" fill="none" xmlns="http://www.w3.org/2000/svg">
<rect x="-0.000366211" y="0.0541992" width="14.0517" height="54.6146" rx="7.02585" fill="white"/>
<path fill-rule="evenodd" clip-rule="evenodd" d="M26.3532 0.032761C25.0352 -0.197652 23.8282 0.816611 23.8282 2.15456V47.4773C23.8282 51.1935 26.8408 54.206 30.5569 54.206C33.6056 54.206 36.1057 52.2039 36.9665 49.5352L37.8785 50.0408L38.1839 28.866L39.7113 28.5189L56.2068 43.0982C57.225 44.1011 59.567 46.1067 60.7889 46.1067C62.0107 46.1067 63.4363 45.1039 63.5381 44.7182L81.2555 28.5189L82.7828 30.1388V50.0408C82.7828 51.8921 83.9436 53.2806 84.9211 53.2806C85.8986 53.2806 86.754 52.9721 87.0594 52.8178C87.874 52.2007 89.7476 50.8276 90.7251 50.2722C91.947 49.5779 94.6962 46.8009 95.9181 45.181C96.8956 43.8851 97.14 41.7097 97.14 40.7841L96.8679 40.8826C97.0444 40.3851 97.1412 39.8469 97.1412 39.2811V2.33701C97.1412 1.07638 96.1193 0.0544303 94.8586 0.0544303C93.9825 0.0544303 93.2099 0.551128 92.8282 1.29333L92.8634 0.748753C83.2919 9.85119 64.149 27.4081 62.9272 28.5189C61.0943 30.1851 59.567 29.2132 59.567 29.2132L27.7979 0.748753L27.7848 0.975329C27.4647 0.486275 26.9519 0.137431 26.3532 0.032761Z" fill="white"/>
</svg>
