<svg width="100" height="77" viewBox="0 0 100 77" fill="none" xmlns="http://www.w3.org/2000/svg">
<g clip-path="url(#clip0_2316_1735)">
<path d="M99.9992 47.7211C99.9034 48.0277 99.8268 48.3342 99.731 48.6407C99.0414 50.8246 97.5471 52.2231 95.3632 52.8361C92.911 53.5067 90.4397 53.4875 87.9876 52.7595C85.6313 52.0507 84.2136 50.1924 84.0795 47.7403C84.0604 47.1081 84.0795 46.4759 84.0795 45.7863C86.0336 46.0161 87.9301 46.246 89.865 46.4759C89.9225 46.9165 89.9608 47.3572 90.0566 47.7786C90.344 49.1005 91.5126 49.6752 92.7578 49.1388C93.3708 48.8897 93.754 48.43 93.8114 47.7595C93.8497 47.089 93.6582 46.4951 93.0451 46.1886C92.1256 45.7479 91.1677 45.3648 90.229 44.9816C89.2328 44.5793 88.1983 44.292 87.2405 43.8131C84.9608 42.6636 83.9263 40.7479 84.0604 38.2191C84.1753 35.6904 85.4397 33.9279 87.796 32.9509C89.4053 32.2804 91.0911 32.1463 92.8152 32.2229C94.003 32.2804 95.1716 32.4336 96.3019 32.8551C98.3134 33.6405 99.6544 35.3455 99.5586 38.2383C97.6812 38.3341 95.8229 38.4107 93.9264 38.4873C93.8689 38.085 93.8306 37.7019 93.7348 37.357C93.4858 36.4566 92.4513 36.016 91.3593 36.3417C90.4972 36.5907 90.0183 37.4337 90.344 38.2766C90.4972 38.6597 90.842 39.0812 91.2252 39.2345C92.3938 39.7325 93.639 40.0774 94.8268 40.5372C95.7463 40.882 96.6659 41.2268 97.4896 41.7249C98.8115 42.5104 99.6353 43.679 99.9035 45.2115C99.9226 45.3073 99.9609 45.384 99.9992 45.4797V47.7211Z" fill="white"/>
<path d="M99.9998 4.46365C99.9423 4.65522 99.8657 4.86595 99.8082 5.05753C99.2527 6.91579 97.5477 8.08439 95.5936 7.95029C93.7545 7.81619 92.2603 6.37938 91.9537 4.4445C91.6664 2.70118 92.7583 0.881236 94.4825 0.191573C94.6358 0.134105 94.7699 0.0574683 94.9231 0C95.6128 0 96.2833 0 96.973 0C97.0879 0.0383122 97.2028 0.0957853 97.3178 0.153259C98.6971 0.689663 99.5592 1.68584 99.904 3.1418C99.9232 3.21843 99.9615 3.31422 99.9998 3.39084V4.46365ZM92.4518 3.92725C92.4327 5.91961 93.9461 7.49051 95.9001 7.49051C97.8925 7.50967 99.4442 5.95793 99.4826 3.96557C99.5017 1.99236 97.9308 0.363984 95.9768 0.363984C94.0036 0.344828 92.4518 1.91573 92.4518 3.92725Z" fill="white"/>
<path d="M38.161 48.9283C38.1227 48.9857 38.0652 49.0624 38.0269 49.1582C37.0116 51.4762 35.1725 52.7214 32.7395 53.1046C30.8238 53.4111 28.908 53.3919 27.0306 52.913C24.1762 52.2042 22.6628 50.2693 22.203 47.4915C21.724 44.4263 21.6857 41.3228 22.2796 38.2576C22.9693 34.6752 25.5172 32.4913 29.1954 32.2614C30.728 32.1656 32.2414 32.1848 33.7357 32.5679C35.843 33.1043 37.3756 34.3304 38.1802 36.3802C38.2185 36.476 38.2568 36.591 38.3143 36.7251C38.3909 36.6293 38.4484 36.5526 38.4867 36.476C39.6553 33.8515 41.7626 32.6062 44.5404 32.2997C46.073 32.1273 47.6247 32.1656 49.1382 32.5105C51.7627 33.0852 53.5252 34.6561 54.1191 37.2806C54.9237 40.863 54.962 44.4838 54.0807 48.047C53.3145 51.0356 51.1305 52.798 48.0654 53.162C46.322 53.3728 44.5979 53.3536 42.8737 52.9705C40.7281 52.4724 39.1381 51.2846 38.3526 49.1773C38.3143 49.1007 38.276 49.0241 38.2377 48.9474C38.2377 48.9474 38.2185 48.9474 38.161 48.9283ZM48.1611 38.8515C48.1611 38.6025 48.1803 38.3534 48.1803 38.1235C48.1803 37.2423 47.6056 36.6101 46.7243 36.5335C46.5519 36.5335 46.3795 36.5335 46.1879 36.5335C45.1534 36.5143 44.5596 37.0316 44.5021 38.0469C44.4063 39.4071 44.3297 40.7673 44.2722 42.1083C44.1764 43.9091 44.0806 45.7098 44.004 47.5106C43.9657 48.4302 44.5979 49.0624 45.5366 49.1007C45.6898 49.1007 45.8623 49.1198 46.0155 49.1198C47.0117 49.139 47.6247 48.6026 47.6822 47.6256C47.8546 44.6945 48.0079 41.7634 48.1611 38.8515ZM32.2606 42.8937C32.1648 41.2845 32.1073 39.6944 32.0115 38.0852C31.9732 37.2806 31.5517 36.6676 30.8812 36.5718C29.9042 36.4185 29.0613 36.4569 28.6207 37.1657C28.4291 37.4722 28.295 37.8937 28.3142 38.2576C28.4483 41.3994 28.6207 44.5604 28.7931 47.7214C28.8314 48.3344 29.2529 48.89 29.8468 49.0432C30.1724 49.1198 30.5173 49.1007 30.8621 49.1007C31.9541 49.0624 32.5671 48.3727 32.4905 47.2999C32.4138 45.8439 32.3372 44.3688 32.2606 42.8937Z" fill="white"/>
<path d="M88.2977 58.143C88.3552 58.0664 88.3935 58.028 88.4318 57.9706C89.6004 55.6334 91.6311 55.0203 94.0449 55.1544C94.4664 55.1736 94.8879 55.2502 95.3093 55.346C97.1676 55.8249 98.0871 57.1468 98.4128 58.9284C98.5086 59.4457 98.5469 59.9629 98.5469 60.4802C98.5469 65.4802 98.5469 70.4803 98.5469 75.4995C98.5469 75.6336 98.5469 75.7869 98.5469 76.0168C96.1139 75.8635 93.7193 75.6911 91.2863 75.5378C91.2863 75.3462 91.2863 75.2121 91.2863 75.078C91.497 71.1316 91.6886 67.1852 91.8802 63.2388C91.9185 62.6258 91.9185 61.9936 91.9185 61.3806C91.9185 60.6334 91.3821 60.0779 90.6158 60.0396C90.4242 60.0396 90.2518 60.0396 90.0794 60.0396C89.2173 60.0587 88.6617 60.576 88.6426 61.438C88.6234 62.7599 88.6043 64.0817 88.6043 65.4228C88.5851 68.5646 88.6043 71.7064 88.6043 74.8482C88.6043 75.0397 88.6043 75.2505 88.6043 75.4803H81.9567C81.9567 75.2696 81.9567 75.078 81.9567 74.9056C81.9567 70.7868 81.9758 66.668 81.9567 62.5492C81.9567 62.0702 81.9184 61.5913 81.7843 61.1124C81.6118 60.4035 81.0754 60.0587 80.29 60.0779C79.5045 60.0779 78.9107 60.4227 78.834 61.1507C78.6999 62.1085 78.6999 63.0856 78.7382 64.0434C78.8915 67.396 79.1022 70.7485 79.2938 74.0819C79.3321 74.6949 79.3704 75.3079 79.4088 75.9976C78.834 75.9593 78.3359 75.921 77.8187 75.8635C76.0562 75.6911 74.2938 75.4803 72.5313 75.3462C72.0523 75.3079 71.9949 75.1164 71.9949 74.7141C72.014 70.8251 72.014 66.9362 72.014 63.0664C72.014 60.7675 72.014 58.4878 72.014 56.2081C72.014 56.0357 72.014 55.8633 72.014 55.6525H78.4126C78.2402 56.438 78.0869 57.2234 77.9336 58.0472C78.2402 58.143 78.5084 58.2196 78.6808 57.8556C79.8111 55.5759 81.8034 55.0203 84.1406 55.1544C86.0563 55.2694 87.3973 56.1698 88.1445 57.9131C88.1828 57.9897 88.2403 58.0472 88.2977 58.143Z" fill="white"/>
<path d="M62.2619 35.2307C62.5109 35.0774 62.7025 35.02 62.76 34.905C63.9669 32.4337 66.1317 31.974 68.603 32.2038C70.2888 32.3571 71.4574 33.2575 72.1662 34.7709C72.2237 34.905 72.3003 35.02 72.3961 35.1924C72.4727 35.0391 72.5494 34.9433 72.6068 34.8284C73.4689 33.1617 74.9249 32.3763 76.7257 32.2038C77.492 32.1272 78.2774 32.1847 79.0437 32.2996C80.902 32.587 82.1663 33.9088 82.492 35.8437C82.5878 36.4376 82.6453 37.0315 82.6453 37.6445C82.6644 42.4913 82.6453 47.3573 82.6453 52.2232C82.6453 52.3765 82.6453 52.5297 82.6453 52.7405H75.4038C75.4038 52.5681 75.3846 52.3957 75.4038 52.2232C75.5954 48.0853 75.787 43.9473 75.9977 39.7901C76.0168 39.3687 76.0168 38.9281 76.036 38.4874C76.0552 37.7211 75.5571 37.1464 74.7908 37.0698C74.2544 37.0123 73.6988 36.9932 73.239 37.3572C72.875 37.6637 72.7409 38.0468 72.7409 38.5258C72.7218 42.3955 72.7218 46.2653 72.7026 50.1351C72.7026 50.6715 72.7218 51.2079 72.7026 51.7251C72.6835 51.8592 72.5302 52.0508 72.4153 52.07C70.4229 52.319 68.4114 52.5298 66.3999 52.7596C66.3232 52.7596 66.2083 52.7405 66.055 52.7405C66.055 52.5297 66.055 52.319 66.055 52.1083C66.055 47.9895 66.0742 43.8706 66.055 39.771C66.055 39.2729 66.0167 38.7556 65.9209 38.2767C65.7485 37.4338 65.2504 37.089 64.3692 37.1081C63.5263 37.1081 63.009 37.4529 62.8941 38.2767C62.7791 39.1005 62.7791 39.9434 62.8175 40.7863C62.9899 44.0239 63.1814 47.2615 63.373 50.4799C63.4113 51.2271 63.4496 51.9742 63.488 52.7405C63.2964 52.7596 63.1623 52.7788 63.009 52.7788C60.8826 52.7788 58.7561 52.7788 56.6105 52.798C56.189 52.798 56.0932 52.6639 56.1124 52.2615C56.1124 45.9013 56.1124 39.5411 56.1124 33.1617C56.1124 32.7786 56.189 32.6253 56.6105 32.6445C58.4304 32.6636 60.2312 32.6445 62.032 32.6445C62.1661 32.6445 62.3002 32.6636 62.4918 32.6636C62.4151 33.4874 62.3577 34.2728 62.2619 35.2307Z" fill="white"/>
<path d="M15.1151 39.8281C15.2875 39.8473 15.4408 39.8664 15.5941 39.8856C17.7397 40.307 18.8125 41.3032 19.2148 44.081C19.3106 44.8856 19.3106 45.6902 19.3106 46.514C19.3297 47.8933 19.7129 48.2956 21.1114 48.3148C21.2071 48.3148 21.3029 48.3148 21.4562 48.334C21.6478 49.7899 21.8393 51.2459 22.0309 52.7785C21.188 52.8168 20.3642 52.9126 19.5405 52.8934C18.1037 52.8742 16.6669 52.8551 15.2684 52.6827C13.7358 52.4719 12.8546 51.4949 12.7205 49.9815C12.5864 48.6979 12.5864 47.4144 12.4906 46.15C12.4522 45.3646 12.4331 44.5983 12.299 43.832C12.1074 42.7783 11.4752 42.2802 10.3833 42.2611C9.54034 42.2419 8.69742 42.2419 7.8545 42.2419C7.79702 42.2419 7.7204 42.2611 7.56714 42.2802C7.81619 45.8052 8.06523 49.3301 8.31427 52.9126C5.76635 52.9892 3.25674 53.085 0.651349 53.1616C0.881236 44.1577 0.651346 35.192 0 26.2073C0.172415 26.1881 0.306516 26.1689 0.440613 26.1689C4.40618 26.2073 8.37174 26.2073 12.3373 26.2647C13.3335 26.2839 14.3297 26.418 15.2684 26.6862C17.7971 27.4333 19.0615 29.2916 19.4064 31.8204C19.6171 33.2955 19.5596 34.7897 19.119 36.2265C18.5634 38.0848 17.3374 39.2342 15.4216 39.6365C15.3067 39.6557 15.2109 39.694 15.1151 39.7323V39.8281ZM7.5863 30.9583V37.8741C8.50585 37.8741 9.32961 37.9315 10.1342 37.8549C11.4178 37.7208 12.1649 36.897 12.5097 35.7093C12.7588 34.828 12.7396 33.9468 12.548 33.0656C12.299 31.8012 11.6668 31.1498 10.3833 30.9966C9.46371 30.8816 8.50585 30.9583 7.5863 30.9583Z" fill="white"/>
<path d="M71.9357 25.1156C72.0315 26.6098 72.1273 28.085 72.2231 29.6175C71.5909 29.6559 70.9778 29.7133 70.3648 29.6942C69.1579 29.675 67.951 29.6175 66.7632 29.5217C65.4797 29.426 64.5218 28.8321 64.0429 27.5677C64.0046 27.4528 63.8896 27.2995 63.7939 27.2995C63.6981 27.2803 63.5448 27.4144 63.4873 27.5294C62.7019 29.1003 61.3417 29.8091 59.675 29.9049C58.8321 29.9624 57.97 29.9241 57.1463 29.7708C55.1156 29.3685 54.0428 28.0083 53.6405 26.0543C53.3531 24.6558 53.3914 23.2573 53.698 21.8588C54.0236 20.4795 54.8091 19.445 56.0735 18.7553C57.3762 18.0465 58.813 17.7592 60.2306 17.4143C60.8819 17.2419 61.5525 17.1078 62.2038 16.8971C63.564 16.4565 64.1387 15.0388 63.5065 13.7553C63.2191 13.1806 62.6061 12.874 61.8207 12.9315C61.1118 12.989 60.4988 13.2189 60.2881 13.966C60.1348 14.5024 60.0773 15.0388 59.9624 15.6519C59.3494 15.5752 58.7172 15.4986 58.0658 15.422C56.9355 15.2687 55.8244 15.0963 54.6941 14.9814C54.311 14.9239 54.2344 14.7706 54.2727 14.4449C54.4451 12.4717 55.5179 11.0733 57.108 10.0388C58.1999 9.29163 59.4643 9.00427 60.767 8.98512C62.2038 8.9468 63.6598 8.96596 65.0774 9.17669C68.1043 9.59815 69.8284 11.648 69.905 14.7132C69.9434 17.1078 69.9242 19.4833 69.9434 21.8588C69.9434 22.242 69.9434 22.6443 69.9434 23.0274C69.9625 24.7707 70.1541 24.9623 71.9357 25.1156ZM63.9854 21.6672H63.9088C63.9088 21.2266 63.8896 20.786 63.9088 20.3454C63.928 19.9239 63.6981 19.7324 63.3149 19.7898C62.7019 19.9048 62.0697 20.0197 61.4758 20.2113C60.4988 20.537 59.9241 21.2458 59.79 22.2803C59.7325 22.7784 59.7133 23.3148 59.7708 23.8129C59.9432 25.0773 60.7862 25.7286 61.9931 25.5753C62.9126 25.4412 63.4682 24.8665 63.6598 24.0044C63.8322 23.2382 63.8896 22.4527 63.9854 21.6672Z" fill="white"/>
<path d="M70.6121 64.8858C70.5355 67.3379 70.5163 69.1962 69.9991 70.9778C69.137 73.9281 67.1446 75.7097 64.0986 76.0354C62.3936 76.2078 60.612 76.1312 58.907 75.863C56.3208 75.4798 54.5966 73.8706 54.0219 71.3227C53.179 67.7403 53.1406 64.1004 54.0219 60.5371C54.8073 57.3378 57.2403 55.4604 60.5545 55.1922C61.9913 55.0773 63.409 55.0964 64.8266 55.3838C67.8343 55.9968 69.6543 57.7976 70.1715 60.8053C70.4397 62.3571 70.5163 63.9279 70.6121 64.8858ZM63.8879 65.8054C63.8113 64.2153 63.7346 62.6253 63.658 61.0544C63.6197 60.3264 63.3323 59.7325 62.5852 59.5218C61.8189 59.3302 60.7269 59.3877 60.2863 60.039C60.1139 60.3072 60.0181 60.652 59.9607 60.9777C59.9032 61.2076 59.9415 61.4567 59.9607 61.7057C60.1139 64.6559 60.2672 67.6253 60.4396 70.5755C60.4779 71.4759 61.1292 72.0506 62.0296 72.0506C62.1829 72.0506 62.3362 72.0315 62.4703 72.0315C63.6005 71.9932 64.2136 71.3227 64.1369 70.2115C64.0412 68.7364 63.9645 67.2805 63.8879 65.8054Z" fill="white"/>
<path d="M99.4647 20.575H88.8516C88.8324 20.7474 88.8133 20.8815 88.8133 21.0156C88.7941 22.1076 88.7941 23.1804 88.7941 24.2723C88.7941 25.2877 89.3688 25.9007 90.3842 25.9773C90.6524 26.0156 90.9206 26.0157 91.1696 26.0157C92.2807 26.0157 92.9512 25.4984 93.1811 24.4064C93.3152 23.7742 93.3535 23.1421 93.4302 22.4715C95.3842 22.7206 97.3191 22.9696 99.3115 23.2187C99.3306 24.5597 99.1007 25.7858 98.3919 26.8969C97.4724 28.3145 96.1888 29.2341 94.5413 29.5981C92.3765 30.077 90.2117 30.0578 88.0661 29.5789C85.5757 29.0233 84.1006 27.395 83.5258 25.0003C82.6829 21.4371 82.6446 17.8355 83.5067 14.2722C84.2921 11.0155 86.3228 9.34879 89.6562 8.96565C91.0738 8.79323 92.4915 8.81239 93.8899 9.06143C96.6678 9.55952 98.3153 11.2454 98.9858 13.9082C99.2348 14.8469 99.3881 15.824 99.4456 16.7818C99.5222 18.0271 99.4647 19.2723 99.4647 20.575ZM93.3727 17.0692C93.411 16.1496 93.4685 15.2876 93.4685 14.4063C93.4685 13.6783 92.8746 12.9887 92.1466 12.8546C91.6485 12.7588 91.1313 12.7396 90.6524 12.7971C89.8094 12.8929 89.2156 13.5634 89.1581 14.4063C89.1198 14.9044 89.0815 15.4025 89.0623 15.9006C89.0432 16.2837 89.0623 16.6669 89.0623 17.0692H93.3727Z" fill="white"/>
<path d="M43.2736 23.8891C44.2506 23.8124 45.1319 23.755 46.0131 23.6975C47.8714 23.5442 49.7105 23.391 51.5687 23.2569C51.7795 23.2377 51.9902 23.2186 52.0094 23.5251C52.0094 23.5825 52.0285 23.6209 52.0285 23.6783C52.2584 25.5941 52.4691 27.5289 52.699 29.483H36.4536V2.89265C38.9632 2.6436 41.4537 2.39455 44.0399 2.14551C43.7909 9.38697 43.5418 16.6093 43.2928 23.8891H43.2736Z" fill="white"/>
<path d="M46.2825 63.4487C46.1867 62.625 46.1292 61.8012 45.976 60.9966C45.7461 59.7322 45.0372 59.2724 43.7729 59.4448C42.9683 59.5598 42.5085 59.9429 42.3744 60.8242C42.2403 61.6096 42.1828 62.3951 42.1828 63.1997C42.202 65.4986 42.2211 67.8166 42.2786 70.1346C42.3169 71.4756 43.0257 72.0887 44.3476 72.0312C45.1139 72.012 45.6694 71.6289 45.8993 70.9201C46.0526 70.3837 46.1292 69.809 46.1867 69.2534C46.225 68.6787 46.1867 68.1039 46.1867 67.4334C46.8955 67.5292 47.566 67.5867 48.2174 67.6825C49.4051 67.8166 50.5929 67.989 51.7998 68.1231C52.0871 68.1614 52.1638 68.2572 52.1638 68.5446C52.1638 69.9239 51.9147 71.2458 51.4166 72.5293C50.6312 74.5983 48.9837 75.6519 46.9147 75.9393C44.8265 76.2458 42.6809 76.265 40.5928 75.8435C38.8494 75.4795 37.6234 74.3875 36.8188 72.8167C36.1291 71.4756 35.8226 70.058 35.7076 68.5637C35.4969 65.9966 35.4778 63.4104 36.1483 60.9008C36.3973 60.0004 36.7805 59.1 37.2402 58.2763C38.0831 56.7628 39.4242 55.8433 41.1292 55.4793C42.9299 55.0961 44.769 54.9812 46.589 55.2877C49.6158 55.805 51.4166 57.5674 51.9147 60.556C52.0488 61.3989 52.0871 62.2418 52.1638 63.0847C52.1829 63.2955 52.1829 63.5062 51.8573 63.5062C50.0373 63.5062 48.2174 63.5062 46.3974 63.487C46.34 63.487 46.3016 63.4679 46.2825 63.4487Z" fill="white"/>
<path d="M82.5106 25.0769C82.7597 26.5712 83.0087 28.0271 83.2578 29.5406C82.4148 29.5789 81.6294 29.6364 80.8248 29.6364C79.3688 29.6172 77.8937 29.598 76.4378 29.5023C74.5987 29.3873 73.5833 28.3337 73.3534 26.4179C73.296 25.8049 73.2576 25.1919 73.2576 24.5788C73.2385 21.4562 73.2385 18.3335 73.2385 15.1917C73.2385 14.7511 73.3534 14.1764 73.1235 13.9082C72.9128 13.6783 72.2998 13.8124 71.8592 13.8124C71.6101 13.7933 71.3419 13.8124 71.0354 13.8124V10.3449C71.7442 10.2683 72.4722 10.1917 73.2385 10.0959V3.44831C75.4416 3.19926 77.6255 2.95022 79.8669 2.70117C79.637 4.98089 79.4071 7.20314 79.1773 9.50202C80.6332 9.29129 82.0317 9.08056 83.5068 8.85067C83.1811 10.1534 82.8746 11.3986 82.5681 12.6247C82.2616 13.8124 82.2616 13.8124 81.0547 13.8124C80.2692 13.8124 79.8669 14.1956 79.8669 14.9619C79.8669 17.7397 79.8669 20.5366 79.8669 23.3144C79.8669 24.6363 80.2884 25.0578 81.6294 25.0769C81.8976 25.0769 82.1658 25.0769 82.5106 25.0769Z" fill="white"/>
<path d="M35.1327 75.7677H28.2361V68.4688C30.2668 68.5837 32.2783 68.6986 34.3281 68.8136C34.5963 71.1316 34.8645 73.4113 35.1327 75.7677Z" fill="white"/>
<path d="M95.1191 6.35984H94.3528V1.45557C95.1191 1.47472 95.8471 1.47472 96.5559 1.55135C97.2838 1.64714 97.667 2.03029 97.7245 2.64332C97.8011 3.29467 97.5137 3.79276 96.9007 4.09928C96.8049 4.13759 96.7283 4.1759 96.6325 4.23338C97.1114 4.92304 97.5712 5.6127 98.031 6.28321C97.3796 6.49394 97.1881 6.43647 96.8432 5.91922C96.6134 5.57439 96.3643 5.24871 96.1536 4.86557C95.9237 4.48242 95.6363 4.32916 95.1191 4.50157V6.35984ZM95.1574 3.83107C95.7704 3.7736 96.4218 4.02264 96.7666 3.42876C96.9199 3.17972 96.9199 2.66248 96.7474 2.43259C96.3643 1.89618 95.7321 2.16439 95.1574 2.12608V3.83107Z" fill="white"/>
</g>
<defs>
<clipPath id="clip0_2316_1735">
<rect width="99.9997" height="76.1652" fill="white"/>
</clipPath>
</defs>
</svg>
