<svg width="63" height="110" viewBox="0 0 63 110" fill="none" xmlns="http://www.w3.org/2000/svg">
<g clip-path="url(#clip0_2316_2993)">
<path d="M62.4444 32.5441L31.2177 16.273L0 32.5441V16.273L31.2222 0.00195312L62.449 16.273V32.5441H62.4444Z" fill="white"/>
<path d="M0 46.209H16.3562V82.0764C16.3562 91.3432 24.0222 95.8611 31.2222 95.8611C38.4843 95.8611 46.0943 91.2229 46.0943 81.9521V46.209H62.449V82.9317C62.449 91.4675 59.4761 98.0552 53.5288 102.572C47.5784 107.086 40.147 109.284 31.0845 109.284C22.0312 109.284 14.5952 107.09 8.78707 102.572C2.9729 98.0593 0 91.7161 0 83.2964V46.209Z" fill="white"/>
</g>
<defs>
<clipPath id="clip0_2316_2993">
<rect width="62.449" height="109.286" fill="white" transform="translate(-0.000244141)"/>
</clipPath>
</defs>
</svg>
